<?xml version="1.0" encoding="UTF-8" standalone="no"?>
<!-- Created with Inkscape (http://www.inkscape.org/) -->

<svg
   xmlns:dc="http://purl.org/dc/elements/1.1/"
   xmlns:cc="http://creativecommons.org/ns#"
   xmlns:rdf="http://www.w3.org/1999/02/22-rdf-syntax-ns#"
   xmlns:svg="http://www.w3.org/2000/svg"
   xmlns="http://www.w3.org/2000/svg"
   xmlns:sodipodi="http://sodipodi.sourceforge.net/DTD/sodipodi-0.dtd"
   xmlns:inkscape="http://www.inkscape.org/namespaces/inkscape"
   version="1.1"
   width="55.5"
   height="64"
   id="svg2985"
   inkscape:version="0.48.4 r9939"
   sodipodi:docname="capital_city.svg">
  <sodipodi:namedview
     pagecolor="#ffffff"
     bordercolor="#666666"
     borderopacity="1"
     objecttolerance="10"
     gridtolerance="10"
     guidetolerance="10"
     inkscape:pageopacity="0"
     inkscape:pageshadow="2"
     inkscape:window-width="640"
     inkscape:window-height="480"
     id="namedview12"
     showgrid="false"
     inkscape:zoom="3.6875"
     inkscape:cx="32"
     inkscape:cy="32"
     inkscape:window-x="2029"
     inkscape:window-y="523"
     inkscape:window-maximized="0"
     inkscape:current-layer="svg2985" />
  <defs
     id="defs2987" />
  <metadata
     id="metadata2990">
    <rdf:RDF>
      <cc:Work
         rdf:about="">
        <dc:format>image/svg+xml</dc:format>
        <dc:type
           rdf:resource="http://purl.org/dc/dcmitype/StillImage" />
        <dc:title />
      </cc:Work>
    </rdf:RDF>
  </metadata>
  <g
     id="layer1"
     transform="translate(-3.5254237,1.0847458)">
    <path
       d="m 42.988699,60.845458 c 3.17151,0.01084 -3.356077,-27.201693 -1.576076,-31.983433 1.779998,-4.781741 3.035947,-5.342159 3.880537,-7.831324 0.844591,-2.489165 -0.100566,-9.25236 -0.100566,-9.25236 l -5.380446,0 -0.100567,5.129025 -4.924314,0 -0.05028,-5.129025 -6.193199,-0.05028 -0.05029,5.129025 -4.924314,0 -0.100566,-5.129025 -5.380447,0 c 0,0 -0.945156,6.763194 -0.100566,9.252361 0.84459,2.489165 2.38499,3.049583 4.164991,7.831324 1.779999,4.781739 -5.316492,31.994185 -2.144982,31.983432 z"
       id="path2999"
       style="fill:#797c7c;fill-opacity:1;stroke:#000000;stroke-width:1;stroke-linecap:butt;stroke-linejoin:miter;stroke-miterlimit:4;stroke-opacity:1;stroke-dasharray:none"
       inkscape:connector-curvature="0" />
    <path
       d="m 42.372775,61.107614 -0.272728,-10.545454 4.308654,-4.772727 5.217744,4.772727 0.09091,10.545454 z"
       id="path3020"
       style="fill:#c4c4c4;fill-opacity:1;stroke:#000000;stroke-width:1px;stroke-linecap:butt;stroke-linejoin:miter;stroke-opacity:1"
       inkscape:connector-curvature="0" />
    <path
       d="m 11.591167,61.041574 -0.208446,-12.216797 4.763199,-4.818182 4.763199,4.818182 0.02663,12.216797 z"
       id="path3020-3"
       style="fill:#c4c4c4;fill-opacity:1;stroke:#000000;stroke-width:1px;stroke-linecap:butt;stroke-linejoin:miter;stroke-opacity:1"
       inkscape:connector-curvature="0" />
    <path
       d="m 32.130296,61.107615 -0.272728,-9.636363 4.354108,-4.772728 5.17229,4.772728 0.09091,9.636363 z"
       id="path3020-6"
       style="fill:#c4c4c4;fill-opacity:1;stroke:#000000;stroke-width:1px;stroke-linecap:butt;stroke-linejoin:miter;stroke-opacity:1"
       inkscape:connector-curvature="0" />
    <path
       d="m 21.766659,61.054361 -0.162992,-11.460451 9.535926,-5.090909 -0.0095,5.090909 -0.01884,11.460451 z"
       id="path3020-7"
       style="fill:#c4c4c4;fill-opacity:1;stroke:#000000;stroke-width:1px;stroke-linecap:butt;stroke-linejoin:miter;stroke-opacity:1"
       inkscape:connector-curvature="0" />
    <path
       d="m 35.017856,9.4483182 c 0,0 1.398508,-4.892087 2.539156,-6.203254 -1.996042,-0.05122 -3.964005,1.905358 -4.371205,1.86419 -0.429059,-0.04338 -1.687414,-2.040967 -1.687414,-2.040967 0,0 -1.258356,2.02973 -1.687415,2.073108 -0.4072,0.04117 -2.448362,-1.922106 -4.371205,-1.86419 1.148975,1.44715 2.539156,6.203255 2.539156,6.203255 z"
       id="path3900"
       style="fill:#e9ce57;fill-opacity:1;stroke:#000000;stroke-width:1px;stroke-linecap:butt;stroke-linejoin:miter;stroke-opacity:1"
       inkscape:connector-curvature="0" />
  </g>
</svg>
