<?xml version="1.0" encoding="UTF-8" standalone="no"?>
<!-- Created with Inkscape (http://www.inkscape.org/) -->

<svg
   xmlns:dc="http://purl.org/dc/elements/1.1/"
   xmlns:cc="http://creativecommons.org/ns#"
   xmlns:rdf="http://www.w3.org/1999/02/22-rdf-syntax-ns#"
   xmlns:svg="http://www.w3.org/2000/svg"
   xmlns="http://www.w3.org/2000/svg"
   xmlns:sodipodi="http://sodipodi.sourceforge.net/DTD/sodipodi-0.dtd"
   xmlns:inkscape="http://www.inkscape.org/namespaces/inkscape"
   version="1.1"
   width="55.5"
   height="64"
   id="svg2985"
   inkscape:version="0.48.4 r9939"
   sodipodi:docname="fortress.svg">
  <sodipodi:namedview
     pagecolor="#ffffff"
     bordercolor="#666666"
     borderopacity="1"
     objecttolerance="10"
     gridtolerance="10"
     guidetolerance="10"
     inkscape:pageopacity="0"
     inkscape:pageshadow="2"
     inkscape:window-width="640"
     inkscape:window-height="480"
     id="namedview3032"
     showgrid="false"
     inkscape:zoom="3.6875"
     inkscape:cx="32"
     inkscape:cy="32"
     inkscape:window-x="2611"
     inkscape:window-y="163"
     inkscape:window-maximized="0"
     inkscape:current-layer="svg2985" />
  <defs
     id="defs2987" />
  <metadata
     id="metadata2990">
    <rdf:RDF>
      <cc:Work
         rdf:about="">
        <dc:format>image/svg+xml</dc:format>
        <dc:type
           rdf:resource="http://purl.org/dc/dcmitype/StillImage" />
        <dc:title />
      </cc:Work>
    </rdf:RDF>
  </metadata>
  <g
     id="layer1"
     transform="translate(-2.7118644,1.0847458)">
    <path
       d="m 55.148461,57.648778 c 1.378699,0.0059 -1.358544,-21.615964 -0.630209,-24.396101 0.728336,-2.780137 1.074505,-2.99399 1.487116,-3.619288 0.41261,-0.625298 0.183553,-4.982125 0.183553,-4.982125 l -1.884408,0.04546 -0.04372,1.968845 -2.140665,0 -0.02186,-1.968845 -2.692268,-0.02732 -0.02186,1.968846 -2.140667,0 -0.04372,-1.968846 -2.066226,0 c 0,0 -0.138145,4.311372 0.274464,5.073035 0.412608,0.761662 0.827503,0.657332 1.419475,3.664742 0.591973,3.00741 -2.72972,24.401943 -1.351022,24.3961 z"
       id="path2999-5-3"
       style="fill:#797c7c;fill-opacity:1;stroke:#000000;stroke-width:1;stroke-linecap:butt;stroke-linejoin:miter;stroke-miterlimit:4;stroke-opacity:1;stroke-dasharray:none"
       inkscape:connector-curvature="0" />
    <path
       d="m 15.805414,57.506212 c 1.378699,0.0059 -1.358544,-21.615964 -0.630209,-24.396101 0.728336,-2.780137 1.074505,-2.99399 1.487116,-3.619288 0.41261,-0.625298 0.183553,-4.982125 0.183553,-4.982125 l -1.884408,0.04546 -0.04372,1.968845 -2.140665,0 -0.02186,-1.968845 -2.692268,-0.02732 -0.02186,1.968846 -2.140667,0 -0.043718,-1.968846 -2.0662261,0 c 0,0 -0.138145,4.311372 0.2744638,5.073035 0.4126087,0.761662 0.8275032,0.657332 1.4194756,3.664742 0.5919724,3.00741 -2.7297204,24.401943 -1.3510218,24.3961 z"
       id="path2999-5"
       style="fill:#797c7c;fill-opacity:1;stroke:#000000;stroke-width:1;stroke-linecap:butt;stroke-linejoin:miter;stroke-miterlimit:4;stroke-opacity:1;stroke-dasharray:none"
       inkscape:connector-curvature="0" />
    <path
       d="m 42.731569,57.374207 c 3.17151,0.01084 -3.356077,-27.201693 -1.576076,-31.983433 1.779998,-4.781741 3.035947,-5.342159 3.880537,-7.831324 0.844591,-2.489165 -0.100566,-9.2523604 -0.100566,-9.2523604 l -5.380446,0 -0.100567,5.1290254 -4.924314,0 -0.05028,-5.1290254 -6.193199,-0.050283 -0.05029,5.1290254 -4.924314,0 -0.100566,-5.1290254 -5.380447,0 c 0,0 -0.945156,6.7631944 -0.100566,9.2523614 0.84459,2.489165 2.38499,3.049583 4.164991,7.831324 1.779999,4.781739 -5.316492,31.994185 -2.144982,31.983432 z"
       id="path2999"
       style="fill:#797c7c;fill-opacity:1;stroke:#000000;stroke-width:1;stroke-linecap:butt;stroke-linejoin:miter;stroke-miterlimit:4;stroke-opacity:1;stroke-dasharray:none"
       inkscape:connector-curvature="0" />
    <path
       d="m 42.115645,57.636363 -0.272728,-10.545454 4.308654,-4.772727 5.217744,4.772727 0.09091,10.545454 z"
       id="path3020"
       style="fill:#c4c4c4;fill-opacity:1;stroke:#000000;stroke-width:1px;stroke-linecap:butt;stroke-linejoin:miter;stroke-opacity:1"
       inkscape:connector-curvature="0" />
    <path
       d="m 11.334037,57.570323 -0.208446,-12.216797 4.763199,-4.818182 4.763199,4.818182 0.02663,12.216797 z"
       id="path3020-3"
       style="fill:#c4c4c4;fill-opacity:1;stroke:#000000;stroke-width:1px;stroke-linecap:butt;stroke-linejoin:miter;stroke-opacity:1"
       inkscape:connector-curvature="0" />
    <path
       d="m 31.873166,57.636364 -0.272728,-9.636363 4.354108,-4.772728 5.17229,4.772728 0.09091,9.636363 z"
       id="path3020-6"
       style="fill:#c4c4c4;fill-opacity:1;stroke:#000000;stroke-width:1px;stroke-linecap:butt;stroke-linejoin:miter;stroke-opacity:1"
       inkscape:connector-curvature="0" />
    <path
       d="m 21.509529,57.58311 -0.162992,-11.460451 9.535926,-5.090909 -0.0095,5.090909 -0.01884,11.460451 z"
       id="path3020-7"
       style="fill:#c4c4c4;fill-opacity:1;stroke:#000000;stroke-width:1px;stroke-linecap:butt;stroke-linejoin:miter;stroke-opacity:1"
       inkscape:connector-curvature="0" />
  </g>
</svg>
