<?xml version="1.0" encoding="UTF-8" standalone="no"?>
<!-- Created with Inkscape (http://www.inkscape.org/) -->

<svg
   xmlns:dc="http://purl.org/dc/elements/1.1/"
   xmlns:cc="http://creativecommons.org/ns#"
   xmlns:rdf="http://www.w3.org/1999/02/22-rdf-syntax-ns#"
   xmlns:svg="http://www.w3.org/2000/svg"
   xmlns="http://www.w3.org/2000/svg"
   xmlns:sodipodi="http://sodipodi.sourceforge.net/DTD/sodipodi-0.dtd"
   xmlns:inkscape="http://www.inkscape.org/namespaces/inkscape"
   version="1.1"
   width="56"
   height="64"
   id="svg2985"
   inkscape:version="0.48.4 r9939"
   sodipodi:docname="wall_w.svg">
  <sodipodi:namedview
     pagecolor="#ffffff"
     bordercolor="#666666"
     borderopacity="1"
     objecttolerance="10"
     gridtolerance="10"
     guidetolerance="10"
     inkscape:pageopacity="0"
     inkscape:pageshadow="2"
     inkscape:window-width="1871"
     inkscape:window-height="1056"
     id="namedview7"
     showgrid="false"
     fit-margin-top="0"
     fit-margin-left="0"
     fit-margin-right="0"
     fit-margin-bottom="0"
     inkscape:zoom="3.6875"
     inkscape:cx="-19.334971"
     inkscape:cy="32.165254"
     inkscape:window-x="1969"
     inkscape:window-y="24"
     inkscape:window-maximized="1"
     inkscape:current-layer="svg2985" />
  <defs
     id="defs2987" />
  <metadata
     id="metadata2990">
    <rdf:RDF>
      <cc:Work
         rdf:about="">
        <dc:format>image/svg+xml</dc:format>
        <dc:type
           rdf:resource="http://purl.org/dc/dcmitype/StillImage" />
        <dc:title></dc:title>
      </cc:Work>
    </rdf:RDF>
  </metadata>
  <g
     id="layer1"
     transform="matrix(-0.24623622,0.42961736,0.42961736,0.24623622,28.175712,0.2863799)">
    <path
       d="M 55.675234,-32.261369 110.9248,-0.67812149 99.798514,18.877032 93.045725,14.886982 98.815981,5.0053685 93.292374,1.7146855 87.331381,11.93153 c -0.05262,-0.02994 -0.410599,-0.233617 -3.352312,-1.907363 l 6.08815,-10.44033249 -5.30012,-3.16352701 -5.976407,10.503912 -3.240568,-1.843786 6.039985,-10.615655 -4.80498,-2.733888 -5.976408,10.503911 -3.240567,-1.84378499 5.99182,-10.79097651 -4.086353,-2.177093 -5.880077,10.8545565 -2.905337,-1.65305 5.943655,-10.9662985 -4.134518,-2.352415 -6.342466,10.8873065 -2.394782,-1.510478 6.118977,-11.0144645 -3.751122,-1.986356 -6.167143,10.8391425 -5.363699,-3.0517825 z"
       id="path3793"
       style="fill:#000000;fill-opacity:1;stroke:#000000;stroke-width:1px;stroke-linecap:butt;stroke-linejoin:miter;stroke-opacity:1"
       inkscape:connector-curvature="0" />
  </g>
</svg>
