<?xml version="1.0" encoding="UTF-8" standalone="no"?>
<svg
   xmlns:dc="http://purl.org/dc/elements/1.1/"
   xmlns:cc="http://creativecommons.org/ns#"
   xmlns:rdf="http://www.w3.org/1999/02/22-rdf-syntax-ns#"
   xmlns:svg="http://www.w3.org/2000/svg"
   xmlns="http://www.w3.org/2000/svg"
   xmlns:sodipodi="http://sodipodi.sourceforge.net/DTD/sodipodi-0.dtd"
   xmlns:inkscape="http://www.inkscape.org/namespaces/inkscape"
   version="1.1"
   id="svg2"
   viewBox="0 0 260 300"
   height="300"
   width="260"
   inkscape:version="0.91 r13725"
   sodipodi:docname="main_button.svg">
  <sodipodi:namedview
     pagecolor="#ffffff"
     bordercolor="#666666"
     borderopacity="1"
     objecttolerance="10"
     gridtolerance="10"
     guidetolerance="10"
     inkscape:pageopacity="0"
     inkscape:pageshadow="2"
     inkscape:window-width="1871"
     inkscape:window-height="1056"
     id="namedview13"
     showgrid="false"
     inkscape:zoom="2.2250293"
     inkscape:cx="221.69787"
     inkscape:cy="124.91665"
     inkscape:window-x="49"
     inkscape:window-y="24"
     inkscape:window-maximized="1"
     inkscape:current-layer="g5582" />
  <defs
     id="defs4" />
  <metadata
     id="metadata7">
    <rdf:RDF>
      <cc:Work
         rdf:about="">
        <dc:format>image/svg+xml</dc:format>
        <dc:type
           rdf:resource="http://purl.org/dc/dcmitype/StillImage" />
        <dc:title />
      </cc:Work>
    </rdf:RDF>
  </metadata>
  <g
     id="g5582"
     transform="translate(0,-752.36216)">
    <path
       inkscape:connector-curvature="0"
       id="path3336"
       d="m 1.4285714,754.50502 c 0,0 -0.2349594,143.84447 0.3571429,158.57143 2.8585183,71.09798 126.7857157,133.57145 126.7857157,133.57145 0,0 118.59046,-55.69159 128.92857,-127.14288 3.98524,-27.54379 0.35714,-165 0.35714,-165 z"
       style="fill:#b5b5b5;fill-opacity:1;fill-rule:evenodd;stroke:none;stroke-width:1px;stroke-linecap:butt;stroke-linejoin:miter;stroke-opacity:1" />
    <g
       transform="matrix(1.4572026,-0.72091979,0.57863956,1.8155104,-118.85501,800.2875)"
       style="font-style:normal;font-variant:normal;font-weight:bold;font-stretch:normal;font-size:32px;line-height:125%;font-family:'DejaVu Serif';-inkscape-font-specification:'Sans Bold';letter-spacing:0px;word-spacing:0px;fill:#000000;fill-opacity:1;stroke:none;stroke-width:1px;stroke-linecap:butt;stroke-linejoin:miter;stroke-opacity:1"
       id="flowRoot5572">
      <path
         d="m 83.201172,73.755231 0,-1.890625 2.96875,0 0,-19.546875 -2.96875,0 0,-1.890625 9.625,0 6.65625,14.96875 6.687498,-14.96875 9.60938,0 0,1.890625 -2.98438,0 0,19.546875 2.98438,0 0,1.890625 -12,0 0,-1.890625 2.96875,0 0,-17.796875 -7.234378,16.265625 -3.953125,0 -7.203125,-16.265625 0,17.796875 2.96875,0 0,1.890625 -8.125,0 z"
         style="text-align:center;text-anchor:middle;fill:#ec3030;fill-opacity:1"
         id="path3349" />
      <path
         d="m 117.04492,73.755231 0,-1.890625 1.90625,0 8.78125,-21.4375 3.73438,0 8.79687,21.4375 2.21875,0 0,1.890625 -10.92187,0 0,-1.890625 2.28125,0 -1.92188,-4.765625 -8.76562,0 -1.95313,4.765625 2.78125,0 0,1.890625 -6.9375,0 z m 6.875,-8.546875 7.23438,0 -3.59375,-8.921875 -3.64063,8.921875 z"
         style="text-align:center;text-anchor:middle;fill:#ec3030;fill-opacity:1"
         id="path3351" />
      <path
         d="m 143.60742,73.755231 0,-1.890625 2.98438,0 0,-19.546875 -2.98438,0 0,-1.890625 12,0 0,1.890625 -3,0 0,19.546875 3,0 0,1.890625 -12,0 z"
         style="text-align:center;text-anchor:middle;fill:#ec3030;fill-opacity:1"
         id="path3353" />
      <path
         d="m 158.51367,73.755231 0,-1.890625 2.98438,0 0,-19.546875 -2.98438,0 0,-1.890625 7.29688,0 14.07812,16.515625 0,-14.625 -2.96875,0 0,-1.890625 8.15625,0 0,1.890625 -2.98437,0 0,21.4375 -4.09375,0 -14.29688,-16.859375 0,14.96875 2.96875,0 0,1.890625 -8.15625,0 z"
         style="text-align:center;text-anchor:middle;fill:#ec3030;fill-opacity:1"
         id="path3355" />
      <path
         d="m 56.294922,113.75523 0,-1.89062 2.984375,0 0,-19.546879 -2.984375,0 0,-1.890625 13.828125,0 q 4.265625,0 6.40625,1.4375 2.140625,1.4375 2.140625,4.328125 0,2.078125 -1.484375,3.296875 -1.46875,1.218754 -4.375,1.531254 3.515625,0.32812 5.390625,1.875 1.875,1.54687 1.875,4.10937 0,3.46875 -2.625,5.10938 -2.609375,1.64062 -8.1875,1.64062 l -12.96875,0 z m 9,-13.59375 2.046875,0 q 2.6875,0 3.984375,-0.968749 1.296875,-0.984375 1.296875,-3 0,-2.03125 -1.265625,-2.953125 -1.25,-0.921875 -4.015625,-0.921875 l -2.046875,0 0,7.843749 z m 0,11.70313 2.234375,0 q 2.984375,0 4.421875,-1.1875 1.4375,-1.1875 1.4375,-3.67188 0,-2.5 -1.453125,-3.73437 -1.453125,-1.23438 -4.40625,-1.23438 l -2.234375,0 0,9.82813 z"
         style="text-align:center;text-anchor:middle;fill:#ec3030;fill-opacity:1"
         id="path3357" />
      <path
         d="m 85.919922,92.317731 -2.96875,0 0,-1.890625 12,0 0,1.890625 -2.984375,0 0,11.671879 q 0,4.35937 1.359375,6.10937 1.359375,1.73438 4.65625,1.73438 3.218748,0 4.562498,-1.75 1.35938,-1.76563 1.35938,-6.09375 l 0,-11.671879 -2.96875,0 0,-1.890625 8.125,0 0,1.890625 -2.98438,0 0,11.999999 q 0,5.34375 -2.3125,7.625 -2.3125,2.26563 -7.765623,2.26563 -5.421875,0 -7.75,-2.29688 -2.328125,-2.29687 -2.328125,-7.625 l 0,-11.968749 z"
         style="text-align:center;text-anchor:middle;fill:#ec3030;fill-opacity:1"
         id="path3359" />
      <path
         d="m 115.5918,113.75523 0,-1.89062 3.09375,0 0,-19.296879 -6.39063,0 0,3.6875 -2.14062,0 0,-5.828125 23.125,0 0,5.828125 -2.10938,0 0,-3.6875 -6.4375,0 0,19.296879 3.10938,0 0,1.89062 -12.25,0 z"
         style="text-align:center;text-anchor:middle;fill:#ec3030;fill-opacity:1"
         id="path3361" />
      <path
         d="m 138.2793,113.75523 0,-1.89062 3.09375,0 0,-19.296879 -6.39063,0 0,3.6875 -2.14062,0 0,-5.828125 23.125,0 0,5.828125 -2.10938,0 0,-3.6875 -6.4375,0 0,19.296879 3.10938,0 0,1.89062 -12.25,0 z"
         style="text-align:center;text-anchor:middle;fill:#ec3030;fill-opacity:1"
         id="path3363" />
      <path
         d="m 170.2168,112.31773 q 2.98437,0 4.4375,-2.51562 1.45312,-2.51563 1.45312,-7.6875 0,-5.187504 -1.45312,-7.703129 -1.45313,-2.515625 -4.4375,-2.515625 -2.96875,0 -4.4375,2.546875 -1.45313,2.53125 -1.45313,7.671879 0,5.125 1.45313,7.67187 1.46875,2.53125 4.4375,2.53125 z m 0,1.89063 q -5.89063,0 -9.23438,-3.21875 -3.34375,-3.21875 -3.34375,-8.875 0,-5.656254 3.34375,-8.875004 3.35938,-3.234375 9.23438,-3.234375 5.89062,0 9.23437,3.21875 3.34375,3.21875 3.34375,8.890629 0,5.65625 -3.35937,8.875 -3.34375,3.21875 -9.21875,3.21875 z"
         style="text-align:center;text-anchor:middle;fill:#ec3030;fill-opacity:1"
         id="path3365" />
      <path
         d="m 185.57617,113.75523 0,-1.89062 2.98438,0 0,-19.546879 -2.98438,0 0,-1.890625 7.29688,0 14.07812,16.515624 0,-14.624999 -2.96875,0 0,-1.890625 8.15625,0 0,1.890625 -2.98437,0 0,21.437499 -4.09375,0 -14.29688,-16.859374 0,14.968754 2.96875,0 0,1.89062 -8.15625,0 z"
         style="text-align:center;text-anchor:middle;fill:#ec3030;fill-opacity:1"
         id="path3367" />
    </g>
  </g>
</svg>
