<?xml version="1.0" encoding="UTF-8" standalone="no"?>
<!-- Created with Inkscape (http://www.inkscape.org/) -->

<svg
   xmlns:dc="http://purl.org/dc/elements/1.1/"
   xmlns:cc="http://creativecommons.org/ns#"
   xmlns:rdf="http://www.w3.org/1999/02/22-rdf-syntax-ns#"
   xmlns:svg="http://www.w3.org/2000/svg"
   xmlns="http://www.w3.org/2000/svg"
   xmlns:sodipodi="http://sodipodi.sourceforge.net/DTD/sodipodi-0.dtd"
   xmlns:inkscape="http://www.inkscape.org/namespaces/inkscape"
   version="1.1"
   width="56"
   height="64"
   id="svg2985"
   inkscape:version="0.48.4 r9939"
   sodipodi:docname="wall_se.svg">
  <sodipodi:namedview
     pagecolor="#ffffff"
     bordercolor="#666666"
     borderopacity="1"
     objecttolerance="10"
     gridtolerance="10"
     guidetolerance="10"
     inkscape:pageopacity="0"
     inkscape:pageshadow="2"
     inkscape:window-width="640"
     inkscape:window-height="480"
     id="namedview3060"
     showgrid="false"
     inkscape:zoom="3.6875"
     inkscape:cx="28"
     inkscape:cy="32"
     inkscape:window-x="3050"
     inkscape:window-y="90"
     inkscape:window-maximized="0"
     inkscape:current-layer="svg2985" />
  <defs
     id="defs2987" />
  <metadata
     id="metadata2990">
    <rdf:RDF>
      <cc:Work
         rdf:about="">
        <dc:format>image/svg+xml</dc:format>
        <dc:type
           rdf:resource="http://purl.org/dc/dcmitype/StillImage" />
        <dc:title />
      </cc:Work>
    </rdf:RDF>
  </metadata>
  <g
     transform="matrix(-0.24623622,-0.42961736,0.42961736,-0.24623622,27.904525,63.80531)"
     id="layer1">
    <path
       d="M 0.12856487,0.10325994 0.25712974,63.74287 l 22.49885226,0 -0.128565,-7.842457 -11.442273,0.128565 -0.128565,-6.428243 11.827968,-0.128565 c 0,-0.06054 0,-0.472407 0,-3.856946 l -12.085098,0.128565 -0.128565,-6.171114 12.085098,0 0,-3.728381 -12.213663,0 0,-5.52829 12.085098,0 0,-3.728381 -12.342227,-0.128565 0.128564,-4.628335 12.342228,0.25713 0,-3.342687 -12.470792,-0.25713 0,-4.7569 12.599357,-0.128565 -0.128565,-2.828427 -12.599357,-0.128565 0.128565,-4.2426405 12.470792,10e-8 0,-6.17111379 z"
       id="path3793"
       style="fill:#000000;fill-opacity:1;stroke:#000000;stroke-width:1px;stroke-linecap:butt;stroke-linejoin:miter;stroke-opacity:1" />
  </g>
</svg>
