<?xml version="1.0" encoding="UTF-8" standalone="no"?>
<!-- Created with Inkscape (http://www.inkscape.org/) -->

<svg
   xmlns:dc="http://purl.org/dc/elements/1.1/"
   xmlns:cc="http://creativecommons.org/ns#"
   xmlns:rdf="http://www.w3.org/1999/02/22-rdf-syntax-ns#"
   xmlns:svg="http://www.w3.org/2000/svg"
   xmlns="http://www.w3.org/2000/svg"
   xmlns:sodipodi="http://sodipodi.sourceforge.net/DTD/sodipodi-0.dtd"
   xmlns:inkscape="http://www.inkscape.org/namespaces/inkscape"
   version="1.1"
   width="56"
   height="64"
   id="svg2985"
   inkscape:version="0.48.4 r9939"
   sodipodi:docname="wall_e.svg">
  <sodipodi:namedview
     pagecolor="#ffffff"
     bordercolor="#666666"
     borderopacity="1"
     objecttolerance="10"
     gridtolerance="10"
     guidetolerance="10"
     inkscape:pageopacity="0"
     inkscape:pageshadow="2"
     inkscape:window-width="640"
     inkscape:window-height="480"
     id="namedview3044"
     showgrid="false"
     inkscape:zoom="3.6875"
     inkscape:cx="28"
     inkscape:cy="32"
     inkscape:window-x="2097"
     inkscape:window-y="82"
     inkscape:window-maximized="0"
     inkscape:current-layer="svg2985" />
  <defs
     id="defs2987" />
  <metadata
     id="metadata2990">
    <rdf:RDF>
      <cc:Work
         rdf:about="">
        <dc:format>image/svg+xml</dc:format>
        <dc:type
           rdf:resource="http://purl.org/dc/dcmitype/StillImage" />
        <dc:title />
      </cc:Work>
    </rdf:RDF>
  </metadata>
  <g
     transform="matrix(-0.24623622,0.42961736,0.42961736,0.24623622,28.175712,0.2863799)"
     id="layer1">
    <path
       d="M 0.57164133,63.879889 55.749442,95.588353 66.998868,76.103776 60.142819,72.293888 54.533023,82.267469 48.901719,79.164688 54.704362,68.857085 c -0.05243,-0.03027 -0.409116,-0.236204 -3.340213,-1.928473 l -5.931208,10.530284 -5.408624,-2.974216 6.042549,-10.466002 -3.228873,-1.86419 -6.106832,10.577342 -4.787639,-2.764145 6.042549,-10.466002 -3.228873,-1.86419 -6.282454,10.624399 -3.943973,-2.425507 6.393795,-10.560118 -2.894852,-1.671343 -6.458077,10.671457 -4.119596,-2.37845 6.188338,-10.975646 -2.513772,-1.302872 -6.41102,10.84708 -3.609952,-2.232661 6.235397,-10.800023 -5.344342,-3.085556 z"
       id="path3793"
       style="fill:#000000;fill-opacity:1;stroke:#000000;stroke-width:1px;stroke-linecap:butt;stroke-linejoin:miter;stroke-opacity:1" />
  </g>
</svg>
