<?xml version="1.0" encoding="UTF-8" standalone="no"?>
<!-- Created with Inkscape (http://www.inkscape.org/) -->

<svg
   xmlns:dc="http://purl.org/dc/elements/1.1/"
   xmlns:cc="http://creativecommons.org/ns#"
   xmlns:rdf="http://www.w3.org/1999/02/22-rdf-syntax-ns#"
   xmlns:svg="http://www.w3.org/2000/svg"
   xmlns="http://www.w3.org/2000/svg"
   xmlns:xlink="http://www.w3.org/1999/xlink"
   xmlns:sodipodi="http://sodipodi.sourceforge.net/DTD/sodipodi-0.dtd"
   xmlns:inkscape="http://www.inkscape.org/namespaces/inkscape"
   width="143.93333mm"
   height="166.22888mm"
   viewBox="0 0 510 588.99997"
   id="svg2"
   version="1.1"
   inkscape:version="0.91 r13725"
   sodipodi:docname="Phoenix mage.svg">
  <defs
     id="defs4">
    <linearGradient
       inkscape:collect="always"
       id="linearGradient4150">
      <stop
         style="stop-color:#ffffff;stop-opacity:1"
         offset="0"
         id="stop4152" />
      <stop
         style="stop-color:#b1b1b1;stop-opacity:1"
         offset="1"
         id="stop4154" />
    </linearGradient>
    <filter
       inkscape:collect="always"
       style="color-interpolation-filters:sRGB"
       id="filter4226"
       x="-0.011941415"
       width="1.0238828"
       y="-0.012059163"
       height="1.0241183">
      <feGaussianBlur
         inkscape:collect="always"
         stdDeviation="0.90609288"
         id="feGaussianBlur4228" />
    </filter>
    <filter
       inkscape:collect="always"
       style="color-interpolation-filters:sRGB"
       id="filter4254"
       x="-0.13399656"
       width="1.2679931"
       y="-0.051496376"
       height="1.1029928">
      <feGaussianBlur
         inkscape:collect="always"
         stdDeviation="1.0882666"
         id="feGaussianBlur4256" />
    </filter>
    <linearGradient
       inkscape:collect="always"
       xlink:href="#linearGradient4150"
       id="linearGradient4156"
       x1="198.61091"
       y1="393.70999"
       x2="357.99096"
       y2="393.70999"
       gradientUnits="userSpaceOnUse" />
    <filter
       inkscape:collect="always"
       style="color-interpolation-filters:sRGB"
       id="filter4166"
       x="-0.0095251042"
       width="1.0190502"
       y="-0.016212464"
       height="1.0324249">
      <feGaussianBlur
         inkscape:collect="always"
         stdDeviation="0.62859553"
         id="feGaussianBlur4168" />
    </filter>
  </defs>
  <sodipodi:namedview
     id="base"
     pagecolor="#ffffff"
     bordercolor="#666666"
     borderopacity="0"
     inkscape:pageopacity="0"
     inkscape:pageshadow="2"
     inkscape:zoom="1"
     inkscape:cx="298.03706"
     inkscape:cy="258.59643"
     inkscape:document-units="px"
     inkscape:current-layer="layer1"
     showgrid="false"
     inkscape:snap-global="true"
     inkscape:object-paths="true"
     inkscape:object-nodes="true"
     inkscape:snap-smooth-nodes="false"
     inkscape:window-width="1469"
     inkscape:window-height="841"
     inkscape:window-x="-8"
     inkscape:window-y="-8"
     inkscape:window-maximized="1"
     showguides="true"
     inkscape:guide-bbox="true"
     inkscape:snap-intersection-paths="true"
     showborder="true"
     fit-margin-top="0"
     fit-margin-left="0"
     fit-margin-right="0"
     fit-margin-bottom="0"
     inkscape:snap-nodes="false" />
  <metadata
     id="metadata7">
    <rdf:RDF>
      <cc:Work
         rdf:about="">
        <dc:format>image/svg+xml</dc:format>
        <dc:type
           rdf:resource="http://purl.org/dc/dcmitype/StillImage" />
        <dc:title />
      </cc:Work>
    </rdf:RDF>
  </metadata>
  <g
     inkscape:label="Ebene 1"
     inkscape:groupmode="layer"
     id="layer1"
     transform="translate(-85.007331,-240.86218)"
     style="display:none">
    <path
       sodipodi:type="star"
       style="fill:none;fill-opacity:1;stroke:#000000;stroke-width:8.1496067;stroke-linecap:round;stroke-linejoin:miter;stroke-miterlimit:4;stroke-dasharray:none;stroke-opacity:1"
       id="path4136"
       sodipodi:sides="6"
       sodipodi:cx="339.98145"
       sodipodi:cy="535.36218"
       sodipodi:r1="1043.2921"
       sodipodi:r2="903.51752"
       sodipodi:arg1="0.52359878"
       sodipodi:arg2="1.0471976"
       inkscape:flatsided="true"
       inkscape:rounded="0"
       inkscape:randomized="0"
       d="m 1243.4989,1057.0082 -903.51746,521.6461 -903.51747,-521.6461 0,-1043.292078 903.51748,-521.646052 903.51745,521.646059 z"
       transform="matrix(0.28223029,0,0,0.28227952,244.04692,384.2404)" />
  </g>
  <g
     inkscape:groupmode="layer"
     id="layer2"
     inkscape:label="Ebene 2"
     style="opacity:1">
    <path
       style="fill:#000000;fill-opacity:1;fill-rule:evenodd;stroke:none;stroke-width:1px;stroke-linecap:butt;stroke-linejoin:miter;stroke-opacity:1;filter:url(#filter4226)"
       d="m 283.07298,278.15042 c -7.03452,-11.3374 0.64879,-17.19221 7.0419,-22.13168 16.07474,-21.88454 -1.50898,-30.17957 -1.50898,-30.17957 -3.78904,-7.57809 -26.50338,-16.40329 -40.74242,-14.58679 -25.88179,3.30179 -47.67475,23.29755 -64.81532,42.96913 -16.01655,18.38158 -28.2056,41.92022 -29.24702,66.21561 -0.84545,19.7236 2.08262,44.85195 18.61358,54.79091 36.82846,22.14249 84.28973,-21.28852 127.25702,-20.6227 11.44164,0.1773 33.70052,6.5389 33.70052,6.5389 0,0 -23.39966,-4.2926 -35.2095,-4.02394 -42.27271,0.96165 -88.59437,41.20594 -125.24505,20.11971 -17.37387,-9.99571 -22.25037,-35.48018 -21.59622,-56.12044 0.79843,-25.19274 15.12014,-48.96643 31.36492,-68.04817 18.02609,-21.17414 39.41101,-39.8326 66.18306,-47.35193 15.99346,-4.492 41.57099,-2.88133 50.69346,1.1148 15.07476,9.98262 20.95519,30.83219 14.6956,49.18448 -2.6571,7.79026 -13.5808,20.6227 -13.5808,20.6227 -4.15034,5.37979 -14.79549,6.03662 -17.60475,1.50898 z"
       id="path4176"
       inkscape:connector-curvature="0"
       sodipodi:nodetypes="sccssssscssssscsss"
       transform="matrix(1.0553191,0,0,1.1105709,-7.5102072,-56.623623)" />
    <path
       style="fill:#ffffff;fill-opacity:1;fill-rule:evenodd;stroke:none;stroke-width:1px;stroke-linecap:butt;stroke-linejoin:miter;stroke-opacity:1;filter:url(#filter4254)"
       d="m 287.24861,266.93752 c -4.18055,3.63144 1.21769,11.01122 6.6241,6.44467 26.50409,-22.38678 11.64513,-39.304 7.37601,-52.93939 2.89558,13.8445 9.44806,26.12645 -14.00011,46.49472 z"
       id="path4178"
       inkscape:connector-curvature="0"
       sodipodi:nodetypes="sscs"
       transform="matrix(1.0553191,0,0,1.1105709,-7.5102072,-56.623623)" />
    <path
       style="fill:#000000;fill-opacity:1;fill-rule:evenodd;stroke:none;stroke-width:1px;stroke-linecap:butt;stroke-linejoin:miter;stroke-opacity:1"
       d="m 220.81384,149.88725 c 13.84266,35.35968 14.45493,20.00262 33.19753,43.25739 3.60897,7.91586 6.28655,18.49381 8.55088,28.42662 9.52008,2.89269 27.41325,11.57452 26.65861,15.33375 -0.43567,2.17027 -18.27815,2.58078 -28.16759,1.50898 0.051,5.28483 1.9535,13.40616 5.26894,18.24686 -5.4139,-3.65221 -4.58863,4.88368 4.36284,9.30002 l -10.63777,-1.39126 c 1.20942,2.33662 1.90408,4.55885 6.03592,7.5449 4.92091,-4.67125 7.66365,-5.70533 13.57476,-8.78124 2.27886,-3.42366 3.05951,-7.02284 2.01801,-10.83548 1.94301,0.0983 4.06066,-0.61847 5.02993,4.02394 -0.99088,1.6091 -1.84339,3.25774 -0.50299,5.53292 1.64681,1.42604 5.64318,-2.55061 8.55088,-4.02394 1.8017,-1.03657 2.00034,-0.0693 2.51496,0.50299 1.9902,-0.60534 3.20861,0.21387 4.5209,1.64228 2.23551,0.30189 5.19676,-9.9e-4 5.53896,1.87867 1.21031,2.57416 -2.71054,1.55651 -4.52694,2.01197 1.9557,-0.0551 3.89749,-0.0824 4.52694,2.51497 -6.30312,1.21668 -10.55312,3.80551 -14.5868,6.5389 -1.60795,-0.0687 -4.26015,0.90687 -4.02394,-1.00598 1.51113,4.69478 1.05205,9.22537 -1.50898,13.5808 -4.16314,1.0661 -5.79359,0.0216 -8.04788,-0.50299 1.6444,3.28558 8.07074,4.18018 13.5808,5.53292 l 16.21095,9.55083 c 4.79663,2.13848 6.84584,6.44609 11.45366,12.07786 l -1.59923,3.3151 -1.92172,1.21184 -1.50898,2.01197 c -0.96532,2.33716 -2.87066,3.3583 -5.02993,4.02394 l -0.91573,-1.87 -4.4896,-9.95332 c -1.46301,2.11086 -2.42229,4.45478 -5.0918,6.00743 -15.56574,-10.21103 -10.05487,-3.71876 -28.77842,-17.99329 2.35748,57.04829 39.48732,88.39713 36.25759,146.03643 -15.01623,0.15541 -20.71332,15.52405 -48.7903,22.63468 -33.14527,-2.48611 -51.91077,-3.51936 -64.88607,-16.09577 0.85106,-6.15435 -0.31023,-11.28644 -8.04788,-13.07781 -18.32407,-8.30315 -30.51442,-5.5656 -42.2514,-2.01198 10.52926,-42.66001 73.32689,-125.84302 75.40703,-150.89186 -3.87286,7.07333 -5.3882,0.4763 -16.44644,1.36652 2.6877,-1.86837 6.94479,-13.93648 7.02667,-19.45448 -6.79549,1.98349 -13.61343,4.93985 -20.30409,2.38218 2.90934,2.5063 20.44994,-9.97175 19.34559,-13.90186 14.31364,-10.28443 1.0565,-11.14953 -0.90641,-10.05643 3.77752,-3.77438 17.89416,-8.41635 17.86548,-15.16812 -9.99681,-3.39372 -23.42305,-6.54248 -24.64665,-10.56285 1.81229,-1.17009 2.45655,-2.21041 10.05986,-4.02395 l 18.61073,1.50898 c 7.20463,-5.76913 4.36524,-14.55146 5.53292,-22.13168 -6.20194,-11.55849 -14.17869,-18.72022 -14.0838,-45.77235 z"
       id="path4146"
       inkscape:connector-curvature="0"
       sodipodi:nodetypes="cccsccccccccccccccccccccccccccccccccccccccccccccccc" />
    <path
       style="fill:#000000;fill-opacity:1;fill-rule:evenodd;stroke:url(#linearGradient4156);stroke-width:1.4;stroke-linecap:butt;stroke-linejoin:miter;stroke-opacity:1;stroke-miterlimit:4;stroke-dasharray:none;filter:url(#filter4166)"
       d="m 349.07701,347.06043 c 15.34873,24.38894 -7.82911,50.19359 -60.86213,60.35914 -34.54388,-5.45773 -50.75098,-32.89616 -73.93994,-32.19154 -13.26494,9.08032 -20.78337,21.35314 -10.05986,43.76038 11.78699,11.70823 28.12667,15.82865 43.76037,21.12569 10.64216,-1.50898 19.18047,-3.01795 23.13767,-4.52693 22.16596,0.27049 40.63491,-10.55004 58.85016,-22.13168 17.79681,-16.4372 18.89217,-28.69903 27.16161,-42.75439 2.10455,-12.48096 -5.36306,-17.14642 -8.04788,-23.64067 z"
       id="path4151"
       inkscape:connector-curvature="0"
       sodipodi:nodetypes="ccccccccc" />
    <path
       style="fill:#fff9f9;fill-opacity:1;fill-rule:evenodd;stroke:none;stroke-width:1px;stroke-linecap:butt;stroke-linejoin:miter;stroke-opacity:1"
       d="m 215.28092,391.3238 c 15.08035,-0.70078 17.42819,12.75359 27.6646,18.10774 18.69172,11.00194 39.32519,8.41169 63.3771,6.53891 -21.20192,5.38047 -53.40107,9.89219 -80.47885,2.51496 -25.2505,-8.38321 -14.44626,-22.80234 -10.56285,-27.16161 z"
       id="path4153"
       inkscape:connector-curvature="0"
       sodipodi:nodetypes="ccccc" />
    <path
       style="fill:#000000;fill-opacity:1;fill-rule:evenodd;stroke:none;stroke-width:1px;stroke-linecap:butt;stroke-linejoin:miter;stroke-opacity:1"
       d="m 326.05349,274.71865 -46.73195,98.45817 3.56732,2.49713 48.15889,-98.45817 c 1.74898,0.44097 2.44889,-0.16714 3.21059,-0.71346 0.96853,-0.60799 0.72048,-1.94593 0,-3.56733 1.15078,-0.0488 2.55632,0.29565 2.85386,-1.0702 0.9248,-1.52507 -0.38077,-2.73151 -1.78366,-3.92405 4.33383,0.23459 7.89919,0.30085 9.78613,-3.44007 2.3133,-4.58619 2.03702,-11.12425 -5.75986,-13.48071 -7.85918,-2.37529 -11.73053,3.21597 -11.44048,8.07759 0.20469,3.43078 1.99567,5.27527 3.49015,7.41626 -0.86826,-1.01805 -2.47485,-0.23004 -3.99918,0.35673 -0.86532,1.51587 -1.9e-4,2.74333 1.14532,3.92406 -2.38936,-1.58299 -2.35523,-0.2578 -3.21059,0 -1.03986,1.52096 -0.24939,2.73687 0.71346,3.92405 z"
       id="path4170"
       inkscape:connector-curvature="0"
       sodipodi:nodetypes="ccccccccsssccccc" />
  </g>
</svg>
