<?xml version="1.0" encoding="UTF-8" standalone="no"?>
<!-- Created with Inkscape (http://www.inkscape.org/) -->

<svg
   xmlns:dc="http://purl.org/dc/elements/1.1/"
   xmlns:cc="http://creativecommons.org/ns#"
   xmlns:rdf="http://www.w3.org/1999/02/22-rdf-syntax-ns#"
   xmlns:svg="http://www.w3.org/2000/svg"
   xmlns="http://www.w3.org/2000/svg"
   xmlns:sodipodi="http://sodipodi.sourceforge.net/DTD/sodipodi-0.dtd"
   xmlns:inkscape="http://www.inkscape.org/namespaces/inkscape"
   width="143.93333mm"
   height="166.22888mm"
   viewBox="0 0 510 588.99997"
   id="svg2"
   version="1.1"
   inkscape:version="0.91 r13725"
   sodipodi:docname="Phoenix boat.svg">
  <defs
     id="defs4" />
  <sodipodi:namedview
     id="base"
     pagecolor="#ffffff"
     bordercolor="#666666"
     borderopacity="0"
     inkscape:pageopacity="0"
     inkscape:pageshadow="2"
     inkscape:zoom="1"
     inkscape:cx="212.60705"
     inkscape:cy="300.09045"
     inkscape:document-units="px"
     inkscape:current-layer="layer1"
     showgrid="false"
     inkscape:snap-global="true"
     inkscape:object-paths="true"
     inkscape:object-nodes="true"
     inkscape:snap-smooth-nodes="false"
     inkscape:window-width="1469"
     inkscape:window-height="841"
     inkscape:window-x="-8"
     inkscape:window-y="-8"
     inkscape:window-maximized="1"
     showguides="true"
     inkscape:guide-bbox="true"
     inkscape:snap-intersection-paths="true"
     showborder="true"
     fit-margin-top="0"
     fit-margin-left="0"
     fit-margin-right="0"
     fit-margin-bottom="0"
     inkscape:snap-nodes="false" />
  <metadata
     id="metadata7">
    <rdf:RDF>
      <cc:Work
         rdf:about="">
        <dc:format>image/svg+xml</dc:format>
        <dc:type
           rdf:resource="http://purl.org/dc/dcmitype/StillImage" />
        <dc:title />
      </cc:Work>
    </rdf:RDF>
  </metadata>
  <g
     inkscape:label="Ebene 1"
     inkscape:groupmode="layer"
     id="layer1"
     transform="translate(-85.007331,-240.86218)"
     style="display:none;opacity:0.481">
    <path
       sodipodi:type="star"
       style="fill:none;fill-opacity:1;stroke:#000000;stroke-width:8.1496067;stroke-linecap:round;stroke-linejoin:miter;stroke-miterlimit:4;stroke-dasharray:none;stroke-opacity:1"
       id="path4136"
       sodipodi:sides="6"
       sodipodi:cx="339.98145"
       sodipodi:cy="535.36218"
       sodipodi:r1="1043.2921"
       sodipodi:r2="903.51752"
       sodipodi:arg1="0.52359878"
       sodipodi:arg2="1.0471976"
       inkscape:flatsided="true"
       inkscape:rounded="0"
       inkscape:randomized="0"
       d="m 1243.4989,1057.0082 -903.51746,521.6461 -903.51747,-521.6461 0,-1043.292078 903.51748,-521.646052 903.51745,521.646059 z"
       transform="matrix(0.28223029,0,0,0.28227952,244.04692,384.2404)" />
  </g>
  <g
     inkscape:groupmode="layer"
     id="layer2"
     inkscape:label="Ebene 2"
     style="opacity:1">
    <path
       style="fill:#000000;fill-opacity:1;fill-rule:evenodd;stroke:none;stroke-width:1px;stroke-linecap:butt;stroke-linejoin:miter;stroke-opacity:1"
       d="m 142.04935,291.17743 c 41.49458,-40.1346 84.1498,-83.22248 131.66189,-127.80894 -13.86991,27.90048 -24.37016,57.48578 -45.69286,81.65986 -43.65355,19.01871 -63.84029,32.3485 -85.96903,46.14908 z"
       id="path4158"
       inkscape:connector-curvature="0"
       sodipodi:nodetypes="cccc" />
    <path
       style="fill:#000000;fill-opacity:1;fill-rule:evenodd;stroke:none;stroke-width:1px;stroke-linecap:butt;stroke-linejoin:miter;stroke-opacity:1"
       d="m 111.06586,323.09512 c 26.26426,-19.94305 52.4733,-39.8677 80.70756,-60.46742 12.69564,-5.02967 24.20111,-10.85278 38.70927,-14.6741 l 16.95112,-30.61321 6.07204,-5.56604 c -16.58608,30.89891 -35.65668,68.3197 -47.31133,86.2736 -24.84709,9.4928 -63.08833,16.75324 -95.12866,25.04717 z"
       id="path4160"
       inkscape:connector-curvature="0"
       sodipodi:nodetypes="ccccccc" />
    <path
       style="fill:#000000;fill-opacity:1;fill-rule:evenodd;stroke:none;stroke-width:1px;stroke-linecap:butt;stroke-linejoin:miter;stroke-opacity:1"
       d="m 194.80944,302.09598 11.89109,-2.53002 c 3.62636,-6.99972 7.25271,-13.99943 10.87907,-20.99915 17.93941,-17.87879 35.06962,-35.75758 52.37137,-53.63637 -12.38813,32.51035 -21.10764,62.40027 -37.69726,97.91168 l -3.28903,2.02401 c -11.95568,-0.0618 -48.33855,10.17612 -71.85249,15.43311 13.5362,-13.70488 25.43277,-25.77011 37.69725,-38.20326 z"
       id="path4162"
       inkscape:connector-curvature="0"
       sodipodi:nodetypes="cccccccc" />
    <path
       style="fill:#000000;fill-opacity:1;fill-rule:evenodd;stroke:none;stroke-width:1px;stroke-linecap:butt;stroke-linejoin:miter;stroke-opacity:1"
       d="m 266.15594,245.17058 c 4.38415,38.10303 4.60271,79.53854 5.81904,120.17584 l -1.26501,2.27701 c -22.48721,-1.00202 -43.04007,-1.35926 -61.47943,-1.012 6.32505,-15.41504 12.65009,-28.20911 18.97514,-41.7453 l 5.56604,-0.759 c 9.01898,-33.7056 19.97206,-52.71014 32.38422,-78.93655 z"
       id="path4164"
       inkscape:connector-curvature="0"
       sodipodi:nodetypes="ccccccc" />
    <path
       style="fill:#000000;fill-opacity:1;fill-rule:evenodd;stroke:none;stroke-width:1px;stroke-linecap:butt;stroke-linejoin:miter;stroke-opacity:1"
       d="m 269.18428,372.19687 0.18479,-4.72348 4.71064,0.26647 -3.99718,-40.93826 7.49138,-70.98977 c 19.58022,-14.22534 38.04326,-17.2789 56.72047,-22.47415 -6.32675,43.04572 -8.44189,86.09144 7.84811,129.13716 -23.25573,5.41852 -47.80189,9.05499 -72.95821,9.72203 z"
       id="path4140"
       inkscape:connector-curvature="0"
       sodipodi:nodetypes="cccccccc" />
    <path
       style="fill:#000000;fill-opacity:1;fill-rule:evenodd;stroke:none;stroke-width:1px;stroke-linecap:butt;stroke-linejoin:miter;stroke-opacity:1"
       d="m 277.79402,255.54365 c 3.99972,-30.89312 3.35016,-63.51743 2.02402,-96.39367 3.36969,21.90075 1.10827,38.19856 42.5043,62.74443 -18.47555,8.03774 -31.27221,21.0445 -44.52832,33.64924 z"
       id="path4142"
       inkscape:connector-curvature="0"
       sodipodi:nodetypes="cccc" />
    <path
       style="fill:#000000;fill-opacity:1;fill-rule:evenodd;stroke:none;stroke-width:1px;stroke-linecap:butt;stroke-linejoin:miter;stroke-opacity:1"
       d="m 280.07104,159.14998 c 1.80476,28.62617 25.72491,52.03828 42.2513,62.49143 -12.52569,-21.8692 -25.7204,-43.29238 -42.2513,-62.49143 z"
       id="path4144"
       inkscape:connector-curvature="0"
       sodipodi:nodetypes="ccc" />
    <path
       style="fill:#000000;fill-opacity:1;fill-rule:evenodd;stroke:none;stroke-width:1px;stroke-linecap:butt;stroke-linejoin:miter;stroke-opacity:1"
       d="m 332.69541,172.55907 c 6.06007,36.16492 24.70048,49.98493 43.2633,63.75644 2.91001,1.552 -36.40711,-60.09981 -43.2633,-63.75644 z"
       id="path4146"
       inkscape:connector-curvature="0"
       sodipodi:nodetypes="ccc" />
    <path
       style="fill:#000000;fill-opacity:1;fill-rule:evenodd;stroke:none;stroke-width:1px;stroke-linecap:butt;stroke-linejoin:miter;stroke-opacity:1"
       d="m 333.20141,172.81207 c 3.22421,30.73613 5.30739,40.37372 43.0103,63.50344 -15.14672,4.94643 -28.94622,14.38359 -41.23929,28.84221 l 0.25301,5.81904 c 11.17475,-2.71392 24.32512,-18.19493 41.74529,-27.32419 -3.5632,45.76324 4.5994,85.94277 20.99914,122.19985 l -75.90053,8.09605 4.55404,-13.40909 15.4331,2.02402 c -16.56209,-65.99661 -5.10301,-111.88608 -8.85506,-189.75133 z"
       id="path4148"
       inkscape:connector-curvature="0"
       sodipodi:nodetypes="cccccccccc" />
    <path
       style="fill:#000000;fill-opacity:1;fill-rule:evenodd;stroke:none;stroke-width:1px;stroke-linecap:butt;stroke-linejoin:miter;stroke-opacity:1"
       d="m 402.7769,365.59942 -6.57805,0.506 c -11.36812,-39.05266 -17.30538,-80.02684 -19.22813,-122.45285 0.71765,-0.34982 1.64918,-0.68693 2.78302,-1.01201 1.97484,43.08612 8.26134,84.58373 23.02316,122.95886 z"
       id="path4150"
       inkscape:connector-curvature="0"
       sodipodi:nodetypes="ccccc" />
    <path
       style="fill:#000000;fill-opacity:1;fill-rule:evenodd;stroke:none;stroke-width:1px;stroke-linecap:butt;stroke-linejoin:miter;stroke-opacity:1"
       d="m 297.80545,380.18421 c 23.90151,0.79991 54.01544,-4.08117 85.15684,-4.84196 -7.24969,-4.26308 -39.59788,0.36809 -61.35126,2.66385 l 12.34402,-223.71969 -14.76193,224.10146 z"
       id="path4152"
       inkscape:connector-curvature="0"
       sodipodi:nodetypes="cccccc" />
    <path
       style="fill:#000000;fill-opacity:1;fill-rule:evenodd;stroke:none;stroke-width:1px;stroke-linecap:butt;stroke-linejoin:miter;stroke-opacity:1"
       d="m 99.564396,322.16407 c 96.882434,35.51612 97.189104,42.85755 163.383484,54.93681 l 17.83663,-238.29731 -14.98277,238.29731 c 37.28695,5.30308 101.71861,14.90957 118.79192,2.14039 0.46352,5.04545 -2.36459,11.59081 -11.41544,17.47989 C 270.74036,391.20205 204.84976,380.96987 187.88801,362.11143 139.27757,342.51601 130.94637,333.9527 99.564396,322.16407 Z"
       id="path4154"
       inkscape:connector-curvature="0"
       sodipodi:nodetypes="cccccccc" />
    <path
       style="fill:#000000;fill-opacity:1;fill-rule:evenodd;stroke:none;stroke-width:1px;stroke-linecap:butt;stroke-linejoin:miter;stroke-opacity:1"
       d="m 37.136204,388.87305 c 42.383755,13.12677 71.328716,29.61325 149.114196,33.88959 -31.61165,11.89776 -59.3372,12.78488 -85.25907,8.56158 24.45509,5.06029 45.55693,12.16169 112.37074,-8.56158 88.71901,-10.22744 176.20344,-13.97329 261.12818,-4.28079 -34.81433,-6.50082 -69.50668,-13.36757 -105.23609,-17.12316 l 4.63753,-5.70772 c -6.85041,2.30997 -104.40672,-2.35288 -164.45368,-9.98851 -1.31664,-9.98528 -12.70642,-16.19313 -21.04722,-23.54435 15.22782,12.6755 20.19065,28.50946 23.18761,44.9483 -52.26866,7.83074 -111.745314,-1.37559 -174.442196,-18.19336 z"
       id="path4156"
       inkscape:connector-curvature="0"
       sodipodi:nodetypes="ccccccccccc" />
  </g>
</svg>
