<?xml version="1.0" encoding="UTF-8" standalone="no"?>
<!-- Created with Inkscape (http://www.inkscape.org/) -->

<svg
   xmlns:dc="http://purl.org/dc/elements/1.1/"
   xmlns:cc="http://creativecommons.org/ns#"
   xmlns:rdf="http://www.w3.org/1999/02/22-rdf-syntax-ns#"
   xmlns:svg="http://www.w3.org/2000/svg"
   xmlns="http://www.w3.org/2000/svg"
   xmlns:xlink="http://www.w3.org/1999/xlink"
   xmlns:sodipodi="http://sodipodi.sourceforge.net/DTD/sodipodi-0.dtd"
   xmlns:inkscape="http://www.inkscape.org/namespaces/inkscape"
   width="143.93333mm"
   height="166.22888mm"
   viewBox="0 0 510 588.99997"
   id="svg2"
   version="1.1"
   inkscape:version="0.91 r13725"
   sodipodi:docname="Phoenix deepsea.svg">
  <defs
     id="defs4">
    <linearGradient
       inkscape:collect="always"
       id="linearGradient4190">
      <stop
         style="stop-color:#437fa1;stop-opacity:1"
         offset="0"
         id="stop4192" />
      <stop
         style="stop-color:#081f4d;stop-opacity:1"
         offset="1"
         id="stop4194" />
    </linearGradient>
    <linearGradient
       inkscape:collect="always"
       id="linearGradient4227">
      <stop
         style="stop-color:#354a7b;stop-opacity:1"
         offset="0"
         id="stop4229" />
      <stop
         style="stop-color:#3f5f75;stop-opacity:0"
         offset="1"
         id="stop4231" />
    </linearGradient>
    <linearGradient
       inkscape:collect="always"
       xlink:href="#linearGradient4190"
       id="linearGradient4490"
       x1="215.82343"
       y1="257.96677"
       x2="323.60175"
       y2="747.98785"
       gradientUnits="userSpaceOnUse"
       gradientTransform="matrix(3.5473407,0,0,3.5473407,-866.11441,-1363.7499)" />
    <linearGradient
       inkscape:collect="always"
       xlink:href="#linearGradient4190"
       id="linearGradient4351"
       x1="220.15884"
       y1="473.39114"
       x2="256.20816"
       y2="849.12067"
       gradientUnits="userSpaceOnUse" />
    <linearGradient
       inkscape:collect="always"
       xlink:href="#linearGradient4190"
       id="linearGradient4359"
       x1="244.26828"
       y1="304.41629"
       x2="270.93665"
       y2="463.60492"
       gradientUnits="userSpaceOnUse" />
    <linearGradient
       inkscape:collect="always"
       xlink:href="#linearGradient4190"
       id="linearGradient4367"
       x1="240.34258"
       y1="259.96805"
       x2="270.21384"
       y2="422.57925"
       gradientUnits="userSpaceOnUse" />
    <linearGradient
       inkscape:collect="always"
       xlink:href="#linearGradient4190"
       id="linearGradient4375"
       x1="245.27402"
       y1="206.28432"
       x2="258.59732"
       y2="296.14108"
       gradientUnits="userSpaceOnUse" />
    <linearGradient
       gradientTransform="translate(2.4789092,-0.57146566)"
       inkscape:collect="always"
       xlink:href="#linearGradient4227"
       id="linearGradient4438"
       x1="264.57733"
       y1="375.47562"
       x2="321.75735"
       y2="284.77734"
       gradientUnits="userSpaceOnUse" />
    <filter
       inkscape:collect="always"
       style="color-interpolation-filters:sRGB"
       id="filter4509"
       x="-0.00086252987"
       width="1.0017251"
       y="-0.0019712725"
       height="1.0039425">
      <feGaussianBlur
         inkscape:collect="always"
         stdDeviation="0.1832876"
         id="feGaussianBlur4511" />
    </filter>
    <filter
       inkscape:collect="always"
       style="color-interpolation-filters:sRGB"
       id="filter4517"
       x="-0.0020087587"
       width="1.0040175"
       y="-0.0029805063"
       height="1.005961">
      <feGaussianBlur
         inkscape:collect="always"
         stdDeviation="0.42686122"
         id="feGaussianBlur4519" />
    </filter>
    <filter
       inkscape:collect="always"
       style="color-interpolation-filters:sRGB"
       id="filter4525"
       x="-0.0030784382"
       width="1.0061569"
       y="-0.0043343423"
       height="1.0086687">
      <feGaussianBlur
         inkscape:collect="always"
         stdDeviation="0.65416812"
         id="feGaussianBlur4527" />
    </filter>
    <filter
       inkscape:collect="always"
       style="color-interpolation-filters:sRGB"
       id="filter4533"
       x="-0.0045465514"
       width="1.0090931"
       y="-0.0050833739"
       height="1.0101667">
      <feGaussianBlur
         inkscape:collect="always"
         stdDeviation="0.96614216"
         id="feGaussianBlur4535" />
    </filter>
    <filter
       inkscape:collect="always"
       style="color-interpolation-filters:sRGB"
       id="filter4573"
       x="-0.022170691"
       width="1.0443414"
       y="-0.02615833"
       height="1.0523167">
      <feGaussianBlur
         inkscape:collect="always"
         stdDeviation="1.1110192"
         id="feGaussianBlur4575" />
    </filter>
    <linearGradient
       inkscape:collect="always"
       xlink:href="#linearGradient4227"
       id="linearGradient4581"
       gradientUnits="userSpaceOnUse"
       gradientTransform="translate(67.134082,-135.05422)"
       x1="264.57733"
       y1="375.47562"
       x2="313.24875"
       y2="261.68253" />
    <linearGradient
       inkscape:collect="always"
       xlink:href="#linearGradient4227"
       id="linearGradient4585"
       gradientUnits="userSpaceOnUse"
       gradientTransform="translate(5.0651161,113.22164)"
       x1="264.57733"
       y1="375.47562"
       x2="313.24875"
       y2="261.68253" />
    <linearGradient
       inkscape:collect="always"
       xlink:href="#linearGradient4227"
       id="linearGradient4589"
       gradientUnits="userSpaceOnUse"
       gradientTransform="translate(-176.83144,43.394052)"
       x1="259.37396"
       y1="357.26379"
       x2="298.93948"
       y2="281.19519" />
    <filter
       inkscape:collect="always"
       style="color-interpolation-filters:sRGB"
       id="filter4204"
       x="-0.034983369"
       width="1.0699667"
       y="-0.060753217"
       height="1.1215064">
      <feGaussianBlur
         inkscape:collect="always"
         stdDeviation="1.5284629"
         id="feGaussianBlur4206" />
    </filter>
    <filter
       inkscape:collect="always"
       style="color-interpolation-filters:sRGB"
       id="filter4195"
       x="-0.044341382"
       width="1.0886828"
       y="-0.05231666"
       height="1.1046333">
      <feGaussianBlur
         inkscape:collect="always"
         stdDeviation="2.2220384"
         id="feGaussianBlur4197" />
    </filter>
    <filter
       inkscape:collect="always"
       style="color-interpolation-filters:sRGB"
       id="filter4223"
       x="-0.061671958"
       width="1.1233439"
       y="-0.10608728"
       height="1.2121746">
      <feGaussianBlur
         inkscape:collect="always"
         stdDeviation="2.9209229"
         id="feGaussianBlur4225" />
    </filter>
  </defs>
  <sodipodi:namedview
     id="base"
     pagecolor="#ffffff"
     bordercolor="#666666"
     borderopacity="0"
     inkscape:pageopacity="0"
     inkscape:pageshadow="2"
     inkscape:zoom="0.82269504"
     inkscape:cx="53.004664"
     inkscape:cy="289.91938"
     inkscape:document-units="px"
     inkscape:current-layer="layer1"
     showgrid="false"
     inkscape:snap-global="true"
     inkscape:object-paths="true"
     inkscape:object-nodes="true"
     inkscape:snap-smooth-nodes="true"
     inkscape:window-width="1473"
     inkscape:window-height="841"
     inkscape:window-x="-8"
     inkscape:window-y="-8"
     inkscape:window-maximized="1"
     showguides="true"
     inkscape:guide-bbox="true"
     inkscape:snap-intersection-paths="true"
     showborder="true"
     fit-margin-top="0"
     fit-margin-left="0"
     fit-margin-right="0"
     fit-margin-bottom="0"
     inkscape:snap-nodes="false" />
  <metadata
     id="metadata7">
    <rdf:RDF>
      <cc:Work
         rdf:about="">
        <dc:format>image/svg+xml</dc:format>
        <dc:type
           rdf:resource="http://purl.org/dc/dcmitype/StillImage" />
        <dc:title />
      </cc:Work>
    </rdf:RDF>
  </metadata>
  <g
     inkscape:label="Hintergrund"
     inkscape:groupmode="layer"
     id="layer1"
     transform="translate(-85.007331,-240.86218)"
     style="display:inline">
    <path
       sodipodi:type="star"
       style="fill:url(#linearGradient4490);fill-opacity:1.0;stroke:none;stroke-width:8.1496067;stroke-linecap:round;stroke-linejoin:miter;stroke-miterlimit:4;stroke-dasharray:none;stroke-opacity:1"
       id="path4136"
       sodipodi:sides="6"
       sodipodi:cx="339.98145"
       sodipodi:cy="535.36218"
       sodipodi:r1="1043.2921"
       sodipodi:r2="903.51752"
       sodipodi:arg1="0.52359878"
       sodipodi:arg2="1.0471976"
       inkscape:flatsided="true"
       inkscape:rounded="0"
       inkscape:randomized="0"
       d="m 1243.4989,1057.0082 -903.51746,521.6461 -903.51747,-521.6461 0,-1043.292078 903.51748,-521.646052 903.51745,521.646059 z"
       transform="matrix(0.28223029,0,0,0.28227952,244.04692,384.2404)" />
  </g>
  <g
     inkscape:groupmode="layer"
     id="layer4"
     inkscape:label="Wellen"
     style="display:inline;opacity:0.89099995">
    <path
       style="opacity:0.86499999;fill:url(#linearGradient4375);fill-opacity:1.0;fill-rule:evenodd;stroke:none;stroke-width:1px;stroke-linecap:butt;stroke-linejoin:miter;stroke-opacity:1;filter:url(#filter4533)"
       d="m -0.0073477,238.26668 c 0.71088474,-3.64201 7.486696,-17.10966 14.5935547,-22.35067 -0.710768,10.39585 -2.213799,21.0888 9.724138,26.74138 26.187423,15.03959 70.474865,-44.23999 105.749995,-53.97556 24.33131,14.22433 51.40755,4.01959 83.87069,3.60663 49.68377,-11.48122 79.04101,-60.97091 151.93966,-59.39376 -8.15494,10.53448 -19.80803,21.06897 -6.07759,31.60345 41.28111,24.21658 46.65565,19.11381 150.19955,-17.24815 l 0,294.5 -255,147.25 L -0.0073486,441.75 Z"
       id="path4333"
       inkscape:connector-curvature="0"
       sodipodi:nodetypes="cccccccccccc" />
    <path
       style="opacity:0.9;fill:url(#linearGradient4367);fill-opacity:1.0;fill-rule:evenodd;stroke:none;stroke-width:1px;stroke-linecap:butt;stroke-linejoin:miter;stroke-opacity:1;filter:url(#filter4525)"
       d="M -0.00734789,296.80105 C 48.548534,277.14481 60.540473,263.34928 145.86207,248.48857 c 55.03766,48.78564 116.05605,45.57204 176.25,49.83621 39.65827,2.80941 81.13201,-29.49807 113.0431,-44.80756 43.90608,-24.30516 45.34186,-22.31918 57.12931,-26.74138 l 17.70817,8.2256 0,206.74856 -255,147.25 L -0.0073486,441.75 Z"
       id="path4331"
       inkscape:connector-curvature="0"
       sodipodi:nodetypes="ccsccccccc" />
    <path
       style="opacity:1;fill:url(#linearGradient4359);fill-opacity:1.0;fill-rule:evenodd;stroke:none;stroke-width:1px;stroke-linecap:butt;stroke-linejoin:miter;stroke-opacity:1;filter:url(#filter4517)"
       d="m 1.2155172,364.12929 c 30.8368078,-25.32661 49.9571988,-56.2771 119.1206928,-63.2069 -9.35843,27.56049 5.98916,35.33353 35.47482,47.09339 9.57957,3.82065 15.08013,-105.87421 127.35491,-102.73823 29.26214,1.01816 44.00869,31.6454 39.92823,43.85761 -19.33823,-26.01433 -47.03737,-15.36499 -39.2824,3.0497 18.36495,43.60883 38.20261,38.29263 58.26479,29.01176 18.74597,-8.67198 33.51936,-41.43644 59.56035,-34.73377 29.02759,15.73478 76.11557,16.66101 108.35574,9.90772 l 0,145.37943 -255,147.25 L -0.0073486,441.75 Z"
       id="path4320"
       inkscape:connector-curvature="0"
       sodipodi:nodetypes="ccsccsscccccc" />
    <path
       style="opacity:1;fill:url(#linearGradient4438);fill-opacity:1;fill-rule:evenodd;stroke:none;stroke-width:1px;stroke-linecap:butt;stroke-linejoin:miter;stroke-opacity:1;filter:url(#filter4195)"
       d="m 282.60241,279.55715 c -48.51792,-22.48318 -67.25579,64.96756 -42.19245,88.1817 43.28602,27.25675 153.4557,-28.34368 144.37929,-67.72414 -27.98425,10.39979 -64.94496,38.68683 -85.94155,19.4793 -17.43735,-15.95158 -12.88512,-17.4484 -16.24529,-39.93686 z"
       id="path4430"
       inkscape:connector-curvature="0"
       sodipodi:nodetypes="cccsc" />
    <path
       style="fill:url(#linearGradient4351);fill-opacity:1;fill-rule:evenodd;stroke:none;stroke-width:1px;stroke-linecap:butt;stroke-linejoin:miter;stroke-opacity:1;filter:url(#filter4509)"
       d="M -0.0073486,441.75 C 35.174424,428.4279 70.714413,414.50878 96.441189,416.94501 c 2.802634,8.37916 -3.685556,15.43105 13.370691,24.31034 32.63427,16.98903 128.03449,-58.98859 192.05173,-75.19548 -2.13514,16.73255 -22.93987,46.00586 34.87916,43.91663 36.44715,-1.31698 54.17627,-24.81134 78.16394,-33.12014 25.23006,11.37807 64.76174,6.74682 95.08594,-11.00675 l 0,75.90039 -255,147.25 L -0.0073486,441.75"
       id="path4318"
       inkscape:connector-curvature="0"
       sodipodi:nodetypes="ccscsccccc" />
    <path
       sodipodi:nodetypes="cccsc"
       inkscape:connector-curvature="0"
       id="path4579"
       d="m 356.78925,147.91127 c -60.71462,3.43482 -50.55598,46.58275 -19.82757,57.75861 42.74514,24.01148 94.26907,-9.8083 88.79309,-27.5862 -28.32356,9.314 -28.97675,6.27107 -46.66383,-2.34606 -21.24558,-10.35082 -31.78085,-9.61766 -22.30169,-27.82635 z"
       style="opacity:1;fill:url(#linearGradient4581);fill-opacity:1;fill-rule:evenodd;stroke:none;stroke-width:1px;stroke-linecap:butt;stroke-linejoin:miter;stroke-opacity:1;filter:url(#filter4223)" />
    <path
       sodipodi:nodetypes="cccsc"
       inkscape:connector-curvature="0"
       id="path4583"
       d="m 296.01597,381.89849 c -38.69827,3.6142 -72.006,51.03543 -46.12325,66.87484 55.48364,26.90342 116.97563,-21.26423 131.4784,-50.44909 -27.88356,6.23401 -41.70222,14.57945 -61.32933,12.2833 -12.97948,-1.51845 -33.50498,-10.50036 -24.02582,-28.70905 z"
       style="opacity:1;fill:url(#linearGradient4585);fill-opacity:1;fill-rule:evenodd;stroke:none;stroke-width:1px;stroke-linecap:butt;stroke-linejoin:miter;stroke-opacity:1;filter:url(#filter4573)" />
    <path
       sodipodi:nodetypes="cccsc"
       inkscape:connector-curvature="0"
       id="path4587"
       d="m 113.68581,322.91127 c -31.276546,2.51682 -53.511604,21.61344 -28.448264,44.82758 35.929794,24.80467 53.289934,1.5321 93.103434,-21.55172 -31.69825,3.83013 -26.52128,3.79568 -43.21555,-3.20813 -21.79275,-9.14279 -16.52385,-13.2005 -21.43962,-20.06773 z"
       style="opacity:0.81999966;fill:url(#linearGradient4589);fill-opacity:1;fill-rule:evenodd;stroke:none;stroke-width:1px;stroke-linecap:butt;stroke-linejoin:miter;stroke-opacity:1;filter:url(#filter4204)" />
  </g>
  <g
     inkscape:groupmode="layer"
     id="layer6"
     inkscape:label="Wellen Highlights"
     style="display:inline">
    <path
       style="fill:#b8e8fc;fill-opacity:1;fill-rule:evenodd;stroke:none;stroke-width:1px;stroke-linecap:butt;stroke-linejoin:miter;stroke-opacity:1"
       d="m 35.673249,441.38653 c 13.617468,-6.89957 37.609232,-15.75692 54.739985,-20.29685 -20.256392,1.57325 -41.795656,10.59149 -54.739985,20.29685 z"
       id="path4414"
       inkscape:connector-curvature="0"
       sodipodi:nodetypes="ccc" />
    <path
       sodipodi:nodetypes="ccc"
       inkscape:connector-curvature="0"
       id="path4416"
       d="m 188.47088,431.43206 c 12.29718,-8.23451 84.05412,-52.84032 106.30935,-59.21759 -40.13217,7.33359 -96.43134,48.24852 -106.30935,59.21759 z"
       style="fill:#bce0f0;fill-opacity:1;fill-rule:evenodd;stroke:none;stroke-width:1px;stroke-linecap:butt;stroke-linejoin:miter;stroke-opacity:1" />
    <path
       style="fill:#f8fdff;fill-opacity:1;fill-rule:evenodd;stroke:none;stroke-width:1px;stroke-linecap:butt;stroke-linejoin:miter;stroke-opacity:1"
       d="m 184.8025,320.1579 c 2.11531,-30.68013 55.7005,-59.84625 85.28772,-69.39886 -40.35403,2.34027 -87.1488,39.19371 -85.28772,69.39886 z"
       id="path4418"
       inkscape:connector-curvature="0"
       sodipodi:nodetypes="ccc" />
    <path
       sodipodi:nodetypes="ccc"
       inkscape:connector-curvature="0"
       id="path4420"
       d="m 31.554618,342.71371 c 10.452728,-9.27313 62.815137,-35.83167 83.340092,-37.82595 -21.804202,-1.90932 -72.126141,24.22723 -83.340092,37.82595 z"
       style="fill:#b8e9ff;fill-opacity:1;fill-rule:evenodd;stroke:none;stroke-width:1px;stroke-linecap:butt;stroke-linejoin:miter;stroke-opacity:1" />
    <path
       style="fill:#def3fc;fill-opacity:1;fill-rule:evenodd;stroke:none;stroke-width:1px;stroke-linecap:butt;stroke-linejoin:miter;stroke-opacity:1"
       d="m 56.554618,293.57578 c 10.452728,-9.27313 62.815142,-35.83167 83.340092,-37.82595 -21.8042,-1.90932 -72.126141,24.22723 -83.340092,37.82595 z"
       id="path4422"
       inkscape:connector-curvature="0"
       sodipodi:nodetypes="ccc" />
    <path
       sodipodi:nodetypes="ccc"
       inkscape:connector-curvature="0"
       id="path4424"
       d="m 414.31324,276.3344 c 10.45273,-9.27313 62.81514,-35.83167 83.34009,-37.82595 -21.8042,-1.90932 -72.12614,24.22723 -83.34009,37.82595 z"
       style="fill:#c8ecfc;fill-opacity:1;fill-rule:evenodd;stroke:none;stroke-width:1px;stroke-linecap:butt;stroke-linejoin:miter;stroke-opacity:1" />
    <path
       style="fill:#c6e6f4;fill-opacity:1;fill-rule:evenodd;stroke:none;stroke-width:1px;stroke-linecap:butt;stroke-linejoin:miter;stroke-opacity:1"
       d="m 267.76152,177.19647 c 10.45273,-9.27313 62.81514,-35.83167 83.34009,-37.82595 -21.8042,-1.90932 -72.12614,24.22723 -83.34009,37.82595 z"
       id="path4426"
       inkscape:connector-curvature="0"
       sodipodi:nodetypes="ccc" />
  </g>
</svg>
