<?xml version="1.0" encoding="UTF-8" standalone="no"?>
<!-- Created with Inkscape (http://www.inkscape.org/) -->

<svg
   xmlns:dc="http://purl.org/dc/elements/1.1/"
   xmlns:cc="http://creativecommons.org/ns#"
   xmlns:rdf="http://www.w3.org/1999/02/22-rdf-syntax-ns#"
   xmlns:svg="http://www.w3.org/2000/svg"
   xmlns="http://www.w3.org/2000/svg"
   xmlns:xlink="http://www.w3.org/1999/xlink"
   xmlns:sodipodi="http://sodipodi.sourceforge.net/DTD/sodipodi-0.dtd"
   xmlns:inkscape="http://www.inkscape.org/namespaces/inkscape"
   width="143.93333mm"
   height="166.22888mm"
   viewBox="0 0 510 588.99997"
   id="svg2"
   version="1.1"
   inkscape:version="0.91 r13725"
   sodipodi:docname="Phoenix fortress.svg">
  <defs
     id="defs4">
    <linearGradient
       inkscape:collect="always"
       id="linearGradient4622">
      <stop
         style="stop-color:#000000;stop-opacity:1;"
         offset="0"
         id="stop4624" />
      <stop
         style="stop-color:#000000;stop-opacity:0;"
         offset="1"
         id="stop4626" />
    </linearGradient>
    <linearGradient
       inkscape:collect="always"
       id="linearGradient4359">
      <stop
         style="stop-color:#262323;stop-opacity:1"
         offset="0"
         id="stop4361" />
      <stop
         style="stop-color:#c2b9b5;stop-opacity:1"
         offset="1"
         id="stop4363" />
    </linearGradient>
    <linearGradient
       inkscape:collect="always"
       id="linearGradient4333">
      <stop
         style="stop-color:#260606;stop-opacity:1"
         offset="0"
         id="stop4335" />
      <stop
         style="stop-color:#ee9370;stop-opacity:1"
         offset="1"
         id="stop4337" />
    </linearGradient>
    <inkscape:perspective
       sodipodi:type="inkscape:persp3d"
       inkscape:vp_x="0 : 294.49998 : 1"
       inkscape:vp_y="0 : 1000 : 0"
       inkscape:vp_z="510 : 294.49998 : 1"
       inkscape:persp3d-origin="255 : 196.33332 : 1"
       id="perspective4140" />
    <linearGradient
       inkscape:collect="always"
       xlink:href="#linearGradient4333"
       id="linearGradient4339"
       x1="230.46168"
       y1="114.91297"
       x2="279.52362"
       y2="114.91297"
       gradientUnits="userSpaceOnUse"
       gradientTransform="matrix(1.2060856,0,0,1,-52.550303,-2e-6)" />
    <linearGradient
       inkscape:collect="always"
       xlink:href="#linearGradient4359"
       id="linearGradient4347"
       x1="226.58009"
       y1="193.63162"
       x2="270.73206"
       y2="191.79742"
       gradientUnits="userSpaceOnUse"
       gradientTransform="matrix(1.2060856,0,0,1,-52.550303,-2e-6)" />
    <linearGradient
       inkscape:collect="always"
       xlink:href="#linearGradient4359"
       id="linearGradient4349"
       x1="221.89999"
       y1="243.26166"
       x2="273.51791"
       y2="238.77391"
       gradientUnits="userSpaceOnUse"
       gradientTransform="matrix(1.2060856,0,0,1,-52.550303,-2e-6)" />
    <linearGradient
       inkscape:collect="always"
       xlink:href="#linearGradient4359"
       id="linearGradient4351"
       x1="216.3179"
       y1="364.68591"
       x2="280.68096"
       y2="356.41192"
       gradientUnits="userSpaceOnUse"
       gradientTransform="matrix(1.2060856,0,0,1,-52.550303,-2e-6)" />
    <linearGradient
       inkscape:collect="always"
       xlink:href="#linearGradient4359"
       id="linearGradient4443"
       x1="276.26425"
       y1="336.22113"
       x2="322.39819"
       y2="333.77554"
       gradientUnits="userSpaceOnUse"
       gradientTransform="translate(8.4270435,-3.489868e-6)" />
    <linearGradient
       inkscape:collect="always"
       xlink:href="#linearGradient4359"
       id="linearGradient4451"
       x1="292.24466"
       y1="217.04672"
       x2="312.46243"
       y2="215.82393"
       gradientUnits="userSpaceOnUse"
       gradientTransform="translate(8.4270435,-3.489868e-6)" />
    <linearGradient
       inkscape:collect="always"
       xlink:href="#linearGradient4359"
       id="linearGradient4551"
       x1="295.91302"
       y1="215.82393"
       x2="312.46243"
       y2="215.82393"
       gradientUnits="userSpaceOnUse"
       gradientTransform="translate(1.7716535,0)" />
    <linearGradient
       inkscape:collect="always"
       xlink:href="#linearGradient4359"
       id="linearGradient4443-4"
       x1="275.78839"
       y1="336.69476"
       x2="322.39819"
       y2="333.77554"
       gradientUnits="userSpaceOnUse"
       gradientTransform="matrix(1.4401507,0,0,0.62831578,-82.245207,164.1915)" />
    <linearGradient
       inkscape:collect="always"
       xlink:href="#linearGradient4359"
       id="linearGradient4443-44"
       x1="277.41772"
       y1="333.77554"
       x2="322.39819"
       y2="333.77554"
       gradientUnits="userSpaceOnUse"
       gradientTransform="matrix(1,0,0,0.26313166,52.05707,189.82747)" />
    <linearGradient
       inkscape:collect="always"
       xlink:href="#linearGradient4359"
       id="linearGradient4451-9"
       x1="295.91302"
       y1="215.82393"
       x2="312.46243"
       y2="215.82393"
       gradientUnits="userSpaceOnUse"
       gradientTransform="matrix(0.94931303,0,0,0.42623466,67.475416,152.99864)" />
    <linearGradient
       inkscape:collect="always"
       xlink:href="#linearGradient4359"
       id="linearGradient4768"
       x1="285.97726"
       y1="333.77554"
       x2="322.39819"
       y2="333.77554"
       gradientUnits="userSpaceOnUse"
       gradientTransform="matrix(1,0,0,0.26313166,47.47363,189.82747)" />
    <linearGradient
       inkscape:collect="always"
       xlink:href="#linearGradient4359"
       id="linearGradient4770"
       x1="295.91302"
       y1="215.82393"
       x2="312.46243"
       y2="215.82393"
       gradientUnits="userSpaceOnUse"
       gradientTransform="matrix(0.94931303,0,0,0.41233724,62.891976,156.13669)" />
    <linearGradient
       gradientTransform="translate(0,-2.4907713e-6)"
       inkscape:collect="always"
       xlink:href="#linearGradient4359"
       id="linearGradient4941"
       x1="130.64563"
       y1="461.42398"
       x2="362.21408"
       y2="365.9902"
       gradientUnits="userSpaceOnUse" />
    <linearGradient
       gradientTransform="translate(0,-2.4907713e-6)"
       inkscape:collect="always"
       xlink:href="#linearGradient4992"
       id="linearGradient5020"
       x1="220.05464"
       y1="421.76733"
       x2="232.99989"
       y2="419.80438"
       gradientUnits="userSpaceOnUse" />
    <linearGradient
       id="linearGradient4992"
       inkscape:collect="always">
      <stop
         id="stop4994"
         offset="0"
         style="stop-color:#6f4c2d;stop-opacity:1" />
      <stop
         id="stop4996"
         offset="1"
         style="stop-color:#a46e21;stop-opacity:1" />
    </linearGradient>
    <linearGradient
       gradientTransform="translate(0,-2.4907713e-6)"
       inkscape:collect="always"
       xlink:href="#linearGradient4992"
       id="linearGradient5012"
       x1="225.95674"
       y1="415.99902"
       x2="239.91547"
       y2="414.03607"
       gradientUnits="userSpaceOnUse" />
    <linearGradient
       gradientTransform="translate(0,-2.4907713e-6)"
       inkscape:collect="always"
       xlink:href="#linearGradient4992"
       id="linearGradient5004"
       x1="237.23442"
       y1="413.03256"
       x2="248.04913"
       y2="411.28772"
       gradientUnits="userSpaceOnUse" />
    <linearGradient
       gradientTransform="translate(0,-2.4907713e-6)"
       inkscape:collect="always"
       xlink:href="#linearGradient4992"
       id="linearGradient4990"
       x1="244.05945"
       y1="412.21133"
       x2="254.99265"
       y2="410.6846"
       gradientUnits="userSpaceOnUse" />
    <linearGradient
       gradientTransform="matrix(-1,0,0,1,509.9853,-2.4907713e-6)"
       inkscape:collect="always"
       xlink:href="#linearGradient4992"
       id="linearGradient5020-7"
       x1="236.41252"
       y1="420.2406"
       x2="222.74896"
       y2="419.15009"
       gradientUnits="userSpaceOnUse" />
    <linearGradient
       gradientTransform="matrix(-1,0,0,1,509.9853,-2.4907713e-6)"
       inkscape:collect="always"
       xlink:href="#linearGradient4992"
       id="linearGradient5012-9"
       x1="242.75082"
       y1="422.32407"
       x2="233.37231"
       y2="421.01544"
       gradientUnits="userSpaceOnUse" />
    <linearGradient
       gradientTransform="matrix(-1,0,0,1,509.9853,-2.4907713e-6)"
       inkscape:collect="always"
       xlink:href="#linearGradient4992"
       id="linearGradient5004-5"
       x1="251.19313"
       y1="405.18079"
       x2="239.32494"
       y2="403.87216"
       gradientUnits="userSpaceOnUse" />
    <linearGradient
       gradientTransform="matrix(-1,0,0,1,509.9853,-2.4907713e-6)"
       inkscape:collect="always"
       xlink:href="#linearGradient4992"
       id="linearGradient4990-2"
       x1="259.13663"
       y1="411.55701"
       x2="247.33104"
       y2="410.27994"
       gradientUnits="userSpaceOnUse" />
    <linearGradient
       inkscape:collect="always"
       xlink:href="#linearGradient4359"
       id="linearGradient5251-1"
       x1="374.73584"
       y1="400.41486"
       x2="451.75864"
       y2="375.81262"
       gradientUnits="userSpaceOnUse"
       gradientTransform="translate(-382.52296,-2.4907713e-6)" />
    <linearGradient
       inkscape:collect="always"
       xlink:href="#linearGradient4333"
       id="linearGradient5243-2"
       x1="374.73584"
       y1="333.54877"
       x2="451.75864"
       y2="317.55731"
       gradientUnits="userSpaceOnUse"
       gradientTransform="translate(-382.52296,-2.4907713e-6)" />
    <linearGradient
       gradientTransform="translate(-201.67751,-1.2490771e-5)"
       inkscape:collect="always"
       xlink:href="#linearGradient4359"
       id="linearGradient4941-8"
       x1="110.04125"
       y1="461.73151"
       x2="360.91324"
       y2="384.41113"
       gradientUnits="userSpaceOnUse" />
    <linearGradient
       gradientTransform="translate(-201.67751,-1.2490771e-5)"
       inkscape:collect="always"
       xlink:href="#linearGradient4359"
       id="linearGradient4949-1"
       x1="294.31433"
       y1="331.26761"
       x2="360.91324"
       y2="384.41113"
       gradientUnits="userSpaceOnUse" />
    <linearGradient
       inkscape:collect="always"
       xlink:href="#linearGradient4359"
       id="linearGradient5251"
       x1="374.73584"
       y1="400.41486"
       x2="451.75864"
       y2="375.81262"
       gradientUnits="userSpaceOnUse"
       gradientTransform="translate(58.23401,-2.4907713e-6)" />
    <linearGradient
       inkscape:collect="always"
       xlink:href="#linearGradient4333"
       id="linearGradient5243"
       x1="374.73584"
       y1="333.54877"
       x2="451.75864"
       y2="317.55731"
       gradientUnits="userSpaceOnUse"
       gradientTransform="translate(58.23401,-2.4907713e-6)" />
    <linearGradient
       gradientTransform="translate(173.06568,-1.2490771e-5)"
       inkscape:collect="always"
       xlink:href="#linearGradient4359"
       id="linearGradient4941-8-1"
       x1="110.04125"
       y1="461.73151"
       x2="360.91324"
       y2="384.41113"
       gradientUnits="userSpaceOnUse" />
    <linearGradient
       inkscape:collect="always"
       xlink:href="#linearGradient4333"
       id="linearGradient4339-5"
       x1="230.46169"
       y1="114.91297"
       x2="279.52362"
       y2="114.91297"
       gradientUnits="userSpaceOnUse"
       gradientTransform="matrix(0.56242697,0,0,0.59057069,169.32031,111.69976)" />
    <linearGradient
       inkscape:collect="always"
       xlink:href="#linearGradient4333"
       id="linearGradient4339-4"
       x1="230.46169"
       y1="114.91297"
       x2="279.52362"
       y2="114.91297"
       gradientUnits="userSpaceOnUse"
       gradientTransform="matrix(0.54563948,0,0,0.24727444,217.11074,201.21781)" />
    <linearGradient
       inkscape:collect="always"
       xlink:href="#linearGradient4333"
       id="linearGradient4339-5-9"
       x1="237.19875"
       y1="165.81422"
       x2="258.52527"
       y2="133.52338"
       gradientUnits="userSpaceOnUse"
       gradientTransform="matrix(0.56242697,0,0,0.59057069,169.32031,111.69976)" />
    <linearGradient
       inkscape:collect="always"
       xlink:href="#linearGradient4333"
       id="linearGradient4339-9"
       x1="236.77553"
       y1="173.62859"
       x2="269.22269"
       y2="124.10571"
       gradientUnits="userSpaceOnUse"
       gradientTransform="matrix(1.2060856,0,0,1,-52.550299,-2e-6)" />
    <linearGradient
       inkscape:collect="always"
       xlink:href="#linearGradient4333"
       id="linearGradient4339-4-6"
       x1="240.59616"
       y1="171.58083"
       x2="271.93881"
       y2="123.39292"
       gradientUnits="userSpaceOnUse"
       gradientTransform="matrix(0.54563948,0,0,0.24727444,217.11074,201.21781)" />
    <linearGradient
       inkscape:collect="always"
       xlink:href="#linearGradient4333"
       id="linearGradient4339-5-2"
       x1="230.46169"
       y1="114.91297"
       x2="279.52362"
       y2="114.91297"
       gradientUnits="userSpaceOnUse"
       gradientTransform="matrix(0.56242697,0,0,0.59057069,55.726548,111.69976)" />
    <linearGradient
       inkscape:collect="always"
       xlink:href="#linearGradient4359"
       id="linearGradient4443-9"
       x1="276.26425"
       y1="336.22113"
       x2="322.39819"
       y2="333.77554"
       gradientUnits="userSpaceOnUse"
       gradientTransform="translate(-105.16673,-9.9999997e-7)" />
    <linearGradient
       inkscape:collect="always"
       xlink:href="#linearGradient4359"
       id="linearGradient4451-8"
       x1="292.24466"
       y1="217.04672"
       x2="312.46243"
       y2="215.82393"
       gradientUnits="userSpaceOnUse"
       gradientTransform="translate(-105.16673,-9.9999997e-7)" />
    <linearGradient
       inkscape:collect="always"
       xlink:href="#linearGradient4333"
       id="linearGradient4339-5-9-5"
       x1="242.44775"
       y1="164.49677"
       x2="256.31186"
       y2="130.88846"
       gradientUnits="userSpaceOnUse"
       gradientTransform="matrix(0.56242697,0,0,0.59057069,55.726548,111.69976)" />
    <linearGradient
       inkscape:collect="always"
       xlink:href="#linearGradient4333"
       id="linearGradient4339-4-2"
       x1="230.46169"
       y1="114.91297"
       x2="279.52362"
       y2="114.91297"
       gradientUnits="userSpaceOnUse"
       gradientTransform="matrix(0.54563948,0,0,0.24727444,15.433219,201.21781)" />
    <linearGradient
       inkscape:collect="always"
       xlink:href="#linearGradient4359"
       id="linearGradient4443-4-0"
       x1="275.78839"
       y1="336.69476"
       x2="322.39819"
       y2="333.77554"
       gradientUnits="userSpaceOnUse"
       gradientTransform="matrix(1.4401507,0,0,0.62831578,-283.92273,164.1915)" />
    <linearGradient
       inkscape:collect="always"
       xlink:href="#linearGradient4359"
       id="linearGradient4443-44-8"
       x1="277.41772"
       y1="333.77554"
       x2="322.39819"
       y2="333.77554"
       gradientUnits="userSpaceOnUse"
       gradientTransform="matrix(1,0,0,0.26313166,-149.62045,189.82747)" />
    <linearGradient
       inkscape:collect="always"
       xlink:href="#linearGradient4359"
       id="linearGradient4451-9-8"
       x1="295.91302"
       y1="215.82393"
       x2="312.46243"
       y2="215.82393"
       gradientUnits="userSpaceOnUse"
       gradientTransform="matrix(0.94931303,0,0,0.42623466,-134.2021,152.99864)" />
    <linearGradient
       inkscape:collect="always"
       xlink:href="#linearGradient4333"
       id="linearGradient4339-4-6-6"
       x1="254.84824"
       y1="160.86931"
       x2="279.52362"
       y2="114.91297"
       gradientUnits="userSpaceOnUse"
       gradientTransform="matrix(0.54563948,0,0,0.24727444,15.433219,201.21781)" />
    <linearGradient
       inkscape:collect="always"
       xlink:href="#linearGradient4359"
       id="linearGradient4620"
       x1="299.48773"
       y1="388.81613"
       x2="312.23172"
       y2="483.41061"
       gradientUnits="userSpaceOnUse" />
    <linearGradient
       inkscape:collect="always"
       xlink:href="#linearGradient4622"
       id="linearGradient4628"
       x1="419.79181"
       y1="382.18195"
       x2="466.58258"
       y2="467.16605"
       gradientUnits="userSpaceOnUse" />
  </defs>
  <sodipodi:namedview
     id="base"
     pagecolor="#ffffff"
     bordercolor="#666666"
     borderopacity="0"
     inkscape:pageopacity="0"
     inkscape:pageshadow="2"
     inkscape:zoom="6.4647771"
     inkscape:cx="264.42173"
     inkscape:cy="444.14595"
     inkscape:document-units="px"
     inkscape:current-layer="layer2"
     showgrid="false"
     inkscape:snap-global="true"
     inkscape:object-paths="true"
     inkscape:object-nodes="true"
     inkscape:snap-smooth-nodes="true"
     inkscape:window-width="1470"
     inkscape:window-height="841"
     inkscape:window-x="-8"
     inkscape:window-y="-8"
     inkscape:window-maximized="1"
     showguides="true"
     inkscape:guide-bbox="true"
     inkscape:snap-intersection-paths="true"
     showborder="true"
     fit-margin-top="0"
     fit-margin-left="0"
     fit-margin-right="0"
     fit-margin-bottom="0"
     inkscape:snap-nodes="true"
     inkscape:snap-midpoints="true"
     inkscape:snap-others="true"
     inkscape:snap-bbox="true" />
  <metadata
     id="metadata7">
    <rdf:RDF>
      <cc:Work
         rdf:about="">
        <dc:format>image/svg+xml</dc:format>
        <dc:type
           rdf:resource="http://purl.org/dc/dcmitype/StillImage" />
        <dc:title />
      </cc:Work>
    </rdf:RDF>
  </metadata>
  <g
     inkscape:label="Ebene 1"
     inkscape:groupmode="layer"
     id="layer1"
     transform="translate(-85.007331,-240.86218)"
     style="display:none"
     sodipodi:insensitive="true">
    <path
       sodipodi:type="star"
       style="fill:none;fill-opacity:1;stroke:#000000;stroke-width:8.1496067;stroke-linecap:round;stroke-linejoin:miter;stroke-miterlimit:4;stroke-dasharray:none;stroke-opacity:1"
       id="path4136"
       sodipodi:sides="6"
       sodipodi:cx="339.98145"
       sodipodi:cy="535.36218"
       sodipodi:r1="1043.2921"
       sodipodi:r2="903.51752"
       sodipodi:arg1="0.52359878"
       sodipodi:arg2="1.0471976"
       inkscape:flatsided="true"
       inkscape:rounded="0"
       inkscape:randomized="0"
       d="m 1243.4989,1057.0082 -903.51746,521.6461 -903.51747,-521.6461 0,-1043.292078 903.51748,-521.646052 903.51745,521.646059 z"
       transform="matrix(0.28223029,0,0,0.28227952,244.04692,384.2404)" />
  </g>
  <g
     inkscape:groupmode="layer"
     id="layer2"
     inkscape:label="Ebene 2"
     style="display:inline">
    <path
       style="display:inline;fill:url(#linearGradient4339-4-6);fill-opacity:1;fill-rule:evenodd;stroke:none;stroke-width:1px;stroke-linecap:butt;stroke-linejoin:miter;stroke-opacity:1"
       d="m 369.27359,240.74045 c -8.68587,0.64623 -17.37173,0.69046 -26.0576,0 l 13.0288,-21.8646 z"
       id="path4214-0-1-6"
       inkscape:connector-curvature="0"
       sodipodi:nodetypes="cccc" />
    <path
       style="display:inline;fill:url(#linearGradient4339-9);fill-opacity:1;fill-rule:evenodd;stroke:none;stroke-width:1px;stroke-linecap:butt;stroke-linejoin:miter;stroke-opacity:1"
       d="m 283.79162,159.83311 c -19.61943,3.13661 -38.80299,3.01206 -57.59792,0 l 28.79895,-88.422409 z"
       id="path4214-0-5"
       inkscape:connector-curvature="0"
       sodipodi:nodetypes="cccc" />
    <path
       style="fill:url(#linearGradient4347);fill-opacity:1;fill-rule:evenodd;stroke:none;stroke-width:1px;stroke-linecap:butt;stroke-linejoin:miter;stroke-opacity:1"
       d="m 229.50195,158.06233 7.11133,15.04509 0,37.38086 36.75977,0 0,-37.38086 7.11133,-15.04509 c -16.99414,-0.67161 -33.98829,-0.66863 -50.98243,0 z"
       id="path4210"
       inkscape:connector-curvature="0"
       sodipodi:nodetypes="ccccccc" />
    <path
       style="fill:url(#linearGradient4339);fill-opacity:1;fill-rule:evenodd;stroke:none;stroke-width:1px;stroke-linecap:butt;stroke-linejoin:miter;stroke-opacity:1"
       d="m 283.79162,159.83311 c -19.19931,-1.49451 -38.39861,-1.43068 -57.59792,0 l 28.79895,-88.422409 z"
       id="path4214-0"
       inkscape:connector-curvature="0"
       sodipodi:nodetypes="cccc" />
    <path
       style="fill:url(#linearGradient4349);fill-opacity:1;fill-rule:evenodd;stroke:none;stroke-width:1px;stroke-linecap:butt;stroke-linejoin:miter;stroke-opacity:1"
       d="m 227.57812,210.48828 0,4.39844 5.67383,2.7168 0,38.79848 43.48047,0 0,-38.79848 5.67383,-2.7168 0,-4.39844 c -18.69785,-1.05451 -36.96016,-1.02017 -54.82813,0 z"
       id="path4202"
       inkscape:connector-curvature="0"
       sodipodi:nodetypes="ccccccccc" />
    <path
       style="fill:url(#linearGradient4351);fill-opacity:1;fill-rule:evenodd;stroke:none;stroke-width:0.1;stroke-linecap:butt;stroke-linejoin:miter;stroke-miterlimit:4;stroke-dasharray:none;stroke-opacity:1"
       d="m 215.08008,256.402 0,10.36753 8.99023,4.30469 0,170.67578 30.92188,0 30.92187,0 0,-170.67578 8.99024,-4.30469 0,-10.36753 c -26.89431,-0.87913 -53.49288,-0.84479 -79.82422,0 z"
       id="path4190"
       inkscape:connector-curvature="0"
       sodipodi:nodetypes="cccccccccc" />
    <path
       style="fill:#000000;fill-opacity:1;fill-rule:evenodd;stroke:#000000;stroke-width:0.5;stroke-linecap:butt;stroke-linejoin:miter;stroke-miterlimit:4;stroke-dasharray:none;stroke-opacity:1"
       d="m 254.99265,73.182355 0,-34.995965 18.61219,3.51056 -10.31229,2.63293 9.87347,2.0844 -18.17337,3.62027"
       id="path4307"
       inkscape:connector-curvature="0" />
    <path
       style="fill:#000000;fill-opacity:1;fill-rule:evenodd;stroke:#000000;stroke-width:0.31449378;stroke-linecap:butt;stroke-linejoin:miter;stroke-miterlimit:4;stroke-dasharray:none;stroke-opacity:1"
       d="m 312.60556,153.87283 0,-19.15433 13.45341,1.92143 -7.45401,1.44108 7.13682,1.14086 -13.13622,1.98148"
       id="path4307-8"
       inkscape:connector-curvature="0" />
    <path
       style="display:inline;fill:url(#linearGradient4339-5-9);fill-opacity:1;fill-rule:evenodd;stroke:none;stroke-width:1px;stroke-linecap:butt;stroke-linejoin:miter;stroke-opacity:1"
       d="m 326.1647,206.09251 c -8.9531,0.95733 -17.9062,1.40228 -26.85931,0 l 13.42965,-52.21968 z"
       id="path4214-0-4-0"
       inkscape:connector-curvature="0"
       sodipodi:nodetypes="cccc" />
    <path
       style="fill:url(#linearGradient4451);fill-opacity:1;fill-rule:evenodd;stroke:none;stroke-width:1px;stroke-linecap:butt;stroke-linejoin:miter;stroke-opacity:1"
       d="m 320.88947,225.80107 0,-21.72593 c -5.51647,0 -11.03295,0 -16.54942,0 l 0,21.72593 z"
       id="path4412-5"
       inkscape:connector-curvature="0"
       sodipodi:nodetypes="ccccc" />
    <path
       style="fill:url(#linearGradient4443);fill-opacity:1;fill-rule:evenodd;stroke:none;stroke-width:1px;stroke-linecap:butt;stroke-linejoin:miter;stroke-opacity:1"
       d="m 325.74178,441.75 0,-195.73908 4.58344,-4.58344 0,-15.62641 c -12.03181,-1.04924 -23.83053,-1.0107 -35.42092,0 l 0,15.62641 4.58344,4.58344 0,195.73908 13.12702,0 z"
       id="path4387-1"
       inkscape:connector-curvature="0"
       sodipodi:nodetypes="cccccccccc" />
    <path
       style="fill:#000000;fill-opacity:1;fill-rule:evenodd;stroke:#000000;stroke-width:0.21310055;stroke-linecap:butt;stroke-linejoin:miter;stroke-miterlimit:4;stroke-dasharray:none;stroke-opacity:1"
       d="m 356.24479,218.87585 0,-8.79451 13.45341,0.8822 -7.45401,0.66166 7.13682,0.52381 -13.13622,0.90978"
       id="path4307-8-8"
       inkscape:connector-curvature="0" />
    <path
       style="fill:url(#linearGradient4451-9);fill-opacity:1;fill-rule:evenodd;stroke:none;stroke-width:1px;stroke-linecap:butt;stroke-linejoin:miter;stroke-opacity:1"
       d="m 364.10008,249.24288 0,-8.67735 c -5.3357,-0.58514 -10.5808,-0.63395 -15.71058,0 l 0,8.67735 z"
       id="path4412-5-9"
       inkscape:connector-curvature="0"
       sodipodi:nodetypes="ccccc" />
    <path
       style="fill:url(#linearGradient4443-44);fill-opacity:1;fill-rule:evenodd;stroke:none;stroke-width:1px;stroke-linecap:butt;stroke-linejoin:miter;stroke-opacity:1"
       d="m 369.37181,306.06588 0,-51.50515 4.58344,-1.20605 0,-4.1118 c -11.80697,-0.81283 -23.61395,-0.7521 -35.42092,0 l 0,4.1118 4.58344,1.20605 0,51.50515 13.12702,0 z"
       id="path4387-1-2"
       inkscape:connector-curvature="0"
       sodipodi:nodetypes="cccccccccc" />
    <path
       style="fill:url(#linearGradient4443-4);fill-opacity:1;fill-rule:evenodd;stroke:none;stroke-width:1px;stroke-linecap:butt;stroke-linejoin:miter;stroke-opacity:1"
       d="m 374.73584,450.60827 0,-131.84422 6.60084,-2.87985 0,-9.81832 c -16.92985,-0.5918 -33.93359,-0.59244 -51.01146,0 l 0,9.81832 6.60084,2.87985 0,131.84422 c 12.87644,5.73679 25.51452,6.46798 37.80978,0 z"
       id="path4387-1-1"
       inkscape:connector-curvature="0"
       sodipodi:nodetypes="ccccccccc" />
    <path
       style="fill:#000000;fill-opacity:1;fill-rule:evenodd;stroke:#000000;stroke-width:0.6373834;stroke-linecap:butt;stroke-linejoin:miter;stroke-miterlimit:4;stroke-dasharray:none;stroke-opacity:1"
       d="m 475.37114,308.01779 0,-41.1511 25.72142,4.12797 -14.25123,3.09603 13.64479,2.451 -25.11498,4.25702"
       id="path4307-8-8-7"
       inkscape:connector-curvature="0"
       sodipodi:nodetypes="cccccc" />
    <path
       style="fill:#000000;fill-opacity:1;fill-rule:evenodd;stroke:#000000;stroke-width:0.6373834;stroke-linecap:butt;stroke-linejoin:miter;stroke-miterlimit:4;stroke-dasharray:none;stroke-opacity:1"
       d="m 34.61416,308.01779 0,-41.1511 25.721421,4.12797 -14.25123,3.09603 13.64479,2.451 -25.114981,4.25702"
       id="path4307-8-8-7-1"
       inkscape:connector-curvature="0"
       sodipodi:nodetypes="cccccc" />
    <g
       id="g4511">
      <path
         inkscape:connector-curvature="0"
         id="path4307-8-25"
         d="m 199.01179,153.87283 0,-19.15433 13.45341,1.92143 -7.45401,1.44108 7.13682,1.14086 -13.13622,1.98148"
         style="display:inline;fill:#000000;fill-opacity:1;fill-rule:evenodd;stroke:#000000;stroke-width:0.31449378;stroke-linecap:butt;stroke-linejoin:miter;stroke-miterlimit:4;stroke-dasharray:none;stroke-opacity:1" />
      <path
         sodipodi:nodetypes="cccc"
         inkscape:connector-curvature="0"
         id="path4214-0-4-0-4"
         d="m 212.57093,206.09251 c -8.9531,0.95733 -17.9062,1.40227 -26.85931,0 l 13.42965,-52.21968 z"
         style="display:inline;fill:url(#linearGradient4339-5-9-5);fill-opacity:1;fill-rule:evenodd;stroke:none;stroke-width:1px;stroke-linecap:butt;stroke-linejoin:miter;stroke-opacity:1" />
      <path
         sodipodi:nodetypes="ccccc"
         inkscape:connector-curvature="0"
         id="path4412-5-2"
         d="m 207.2957,225.80107 0,-21.72593 c -5.51647,0 -11.03295,0 -16.54942,0 l 0,21.72593 z"
         style="display:inline;fill:url(#linearGradient4451-8);fill-opacity:1;fill-rule:evenodd;stroke:none;stroke-width:1px;stroke-linecap:butt;stroke-linejoin:miter;stroke-opacity:1" />
      <path
         sodipodi:nodetypes="cccccccccc"
         inkscape:connector-curvature="0"
         id="path4387-1-9"
         d="m 212.14801,441.75 0,-195.73909 4.58344,-4.58343 0,-15.62641 c -12.03181,-1.04924 -23.83053,-1.01071 -35.42092,0 l 0,15.62641 4.58344,4.58343 0,195.73909 13.12702,0 z"
         style="display:inline;fill:url(#linearGradient4443-9);fill-opacity:1;fill-rule:evenodd;stroke:none;stroke-width:1px;stroke-linecap:butt;stroke-linejoin:miter;stroke-opacity:1" />
      <path
         sodipodi:nodetypes="cccc"
         inkscape:connector-curvature="0"
         id="path4214-0-4-9"
         d="m 212.57093,206.09251 c -8.9531,-0.88261 -17.9062,-0.84491 -26.85931,0 l 13.42965,-52.21968 z"
         style="display:inline;fill:url(#linearGradient4339-5-2);fill-opacity:1;fill-rule:evenodd;stroke:none;stroke-width:1px;stroke-linecap:butt;stroke-linejoin:miter;stroke-opacity:1" />
    </g>
    <path
       style="display:inline;fill:url(#linearGradient4941);fill-opacity:1;fill-rule:evenodd;stroke:url(#linearGradient4620);stroke-width:0.2;stroke-linecap:butt;stroke-linejoin:miter;stroke-miterlimit:4;stroke-dasharray:none;stroke-opacity:1"
       d="m 173.1902,373.509 7.99573,0 0,-5.22798 6.15056,0 0,5.22798 7.99573,0 0,-5.22798 6.15056,0 0,5.22798 7.99573,0 0,-5.22798 6.15056,0 0,5.22798 7.99573,0 0,-5.22798 6.15056,0 0,5.22798 7.99573,0 0,-5.22798 6.15056,0 0,5.22798 7.99573,0 0,-5.22798 6.15056,0 0,5.22798 7.99573,0 0,-5.22798 6.15056,0 0,5.22798 7.99573,0 0,-5.22798 6.15056,0 0,5.22798 7.99573,0 0,-5.22798 6.15055,0 0,5.22798 7.99573,0 0,-5.22798 6.15056,0 0,5.22798 7.99573,0 0,-5.22798 6.15056,0 0,5.22798 8.12668,0 0,77.09927 -163.86774,0 0,-77.53221"
       id="path4794-50"
       inkscape:connector-curvature="0"
       sodipodi:nodetypes="ccccccccccccccccccccccccccccccccccccccccccccccccc" />
    <path
       style="display:inline;fill:none;fill-rule:evenodd;stroke:#605959;stroke-width:1px;stroke-linecap:butt;stroke-linejoin:miter;stroke-opacity:1"
       d="m 285.91499,448.83662 c 0,0 0,-68.55486 -30.92234,-69.21741 l 0,0 c -30.92233,0.66255 -30.92233,69.21741 -30.92233,69.21741 l 0,0 61.84375,0 z"
       id="path4951-2"
       inkscape:connector-curvature="0"
       sodipodi:nodetypes="ccccccc" />
    <path
       style="display:inline;fill:url(#linearGradient5020);fill-opacity:1;fill-rule:evenodd;stroke:none;stroke-width:1px;stroke-linecap:butt;stroke-linejoin:miter;stroke-opacity:1"
       d="m 224.07032,450.60827 c 0.76996,-15.18531 2.476,-39.02086 8.42957,-53.05425 l 0,53.05425 z"
       id="path4976"
       inkscape:connector-curvature="0"
       sodipodi:nodetypes="cccc" />
    <path
       style="display:inline;fill:url(#linearGradient5012);fill-opacity:1;fill-rule:evenodd;stroke:none;stroke-width:1px;stroke-linecap:butt;stroke-linejoin:miter;stroke-opacity:1"
       d="m 232.49989,397.55402 c 1.46216,-3.23911 3.63516,-6.83364 7.41557,-11.23189 l 0,64.28614 -7.41557,0 z"
       id="path4978"
       inkscape:connector-curvature="0"
       sodipodi:nodetypes="ccccc" />
    <path
       style="display:inline;fill:url(#linearGradient5004);fill-opacity:1;fill-rule:evenodd;stroke:none;stroke-width:1px;stroke-linecap:butt;stroke-linejoin:miter;stroke-opacity:1"
       d="m 239.91546,450.60827 0,-64.28614 c 1.70646,-1.56833 3.12025,-3.07813 7.63368,-5.20786 l 0,69.494 z"
       id="path4980"
       inkscape:connector-curvature="0"
       sodipodi:nodetypes="ccccc" />
    <path
       style="display:inline;fill:url(#linearGradient4990);fill-opacity:1;fill-rule:evenodd;stroke:none;stroke-width:1px;stroke-linecap:butt;stroke-linejoin:miter;stroke-opacity:1"
       d="m 247.54914,450.60827 0,-69.494 c 1.65121,-0.70584 3.50368,-1.36137 7.44351,-1.49506 l 0,70.98906 z"
       id="path4982"
       inkscape:connector-curvature="0"
       sodipodi:nodetypes="ccccc" />
    <path
       style="display:inline;fill:url(#linearGradient5020-7);fill-opacity:1;fill-rule:evenodd;stroke:none;stroke-width:1px;stroke-linecap:butt;stroke-linejoin:miter;stroke-opacity:1"
       d="m 285.91499,450.60827 c -0.76996,-15.18531 -2.476,-39.02086 -8.42957,-53.05425 l 0,53.05425 z"
       id="path4976-8"
       inkscape:connector-curvature="0"
       sodipodi:nodetypes="cccc" />
    <path
       style="display:inline;fill:url(#linearGradient5012-9);fill-opacity:1;fill-rule:evenodd;stroke:none;stroke-width:1px;stroke-linecap:butt;stroke-linejoin:miter;stroke-opacity:1"
       d="m 277.48542,397.55402 c -1.46216,-3.23911 -3.63516,-6.83364 -7.41558,-11.23189 l 0,64.28614 7.41558,0 z"
       id="path4978-5"
       inkscape:connector-curvature="0"
       sodipodi:nodetypes="ccccc" />
    <path
       style="display:inline;fill:url(#linearGradient5004-5);fill-opacity:1;fill-rule:evenodd;stroke:none;stroke-width:1px;stroke-linecap:butt;stroke-linejoin:miter;stroke-opacity:1"
       d="m 270.06984,450.60827 0,-64.28614 c -1.70645,-1.56833 -3.12025,-3.07813 -7.63368,-5.20786 l 0,69.494 z"
       id="path4980-4"
       inkscape:connector-curvature="0"
       sodipodi:nodetypes="ccccc" />
    <path
       style="display:inline;fill:url(#linearGradient4990-2);fill-opacity:1;fill-rule:evenodd;stroke:none;stroke-width:1px;stroke-linecap:butt;stroke-linejoin:miter;stroke-opacity:1"
       d="m 262.43616,450.60827 0,-69.494 c -1.65121,-0.70584 -3.50368,-1.36137 -7.44351,-1.49506 l 0,70.98906 z"
       id="path4982-4"
       inkscape:connector-curvature="0"
       sodipodi:nodetypes="ccccc" />
    <path
       style="fill:url(#linearGradient5251-1);fill-opacity:1;fill-rule:evenodd;stroke:none;stroke-width:1px;stroke-linecap:butt;stroke-linejoin:miter;stroke-opacity:1"
       d="m 8.16369,441.75 0,-114.65318 52.46735,0 0,114.65318 z"
       id="path5205-7"
       inkscape:connector-curvature="0"
       sodipodi:nodetypes="ccccc" />
    <path
       style="fill:url(#linearGradient5243-2);fill-opacity:1;fill-rule:evenodd;stroke:none;stroke-width:1px;stroke-linecap:butt;stroke-linejoin:miter;stroke-opacity:1"
       d="m -0.00734,327.09682 8.60464,-19.07903 26.01687,0 26.01687,0 8.60464,19.07903 -34.62151,0 z"
       id="path5211-6-5"
       inkscape:connector-curvature="0"
       sodipodi:nodetypes="ccccccc" />
    <path
       style="display:inline;fill:url(#linearGradient4941-8);fill-opacity:1;fill-rule:evenodd;stroke:url(#linearGradient4949-1);stroke-width:0.2;stroke-linecap:butt;stroke-linejoin:miter;stroke-miterlimit:4;stroke-dasharray:none;stroke-opacity:1"
       d="m -0.19474,359.33577 7.99573,0 0,-5.22798 6.15056,0 0,5.22798 7.99573,0 0,-5.22798 6.15056,0 0,5.22798 7.99573,0 0,-5.22798 6.15056,0 0,5.22798 7.99573,0 0,-5.22798 6.15055,0 0,5.22798 7.99573,0 0,-5.22798 6.15056,0 0,5.22798 7.99573,0 0,-5.22798 6.15056,0 0,5.22798 7.99573,0 0,-5.22798 6.15056,0 0,5.22798 7.99573,0 0,-5.22798 6.15056,0 0,5.22798 7.99573,0 0,-5.22798 6.15056,0 0,5.22798 8.12668,0 0,91.2725 L -0.00735,441.75"
       id="path4794-50-4"
       inkscape:connector-curvature="0"
       sodipodi:nodetypes="cccccccccccccccccccccccccccccccccccccccc" />
    <path
       style="fill:url(#linearGradient5251);fill-opacity:1;fill-rule:evenodd;stroke:none;stroke-width:1px;stroke-linecap:butt;stroke-linejoin:miter;stroke-opacity:1"
       d="m 448.92066,441.75 0,-114.65318 52.46735,0 0,114.65318 z"
       id="path5205"
       inkscape:connector-curvature="0"
       sodipodi:nodetypes="ccccc" />
    <path
       style="fill:url(#linearGradient5243);fill-opacity:1;fill-rule:evenodd;stroke:none;stroke-width:1px;stroke-linecap:butt;stroke-linejoin:miter;stroke-opacity:1"
       d="m 440.74963,327.09682 8.60464,-19.07903 26.01687,0 26.01687,0 8.60464,19.07903 -34.62151,0 z"
       id="path5211-6"
       inkscape:connector-curvature="0"
       sodipodi:nodetypes="ccccccc" />
    <path
       style="display:inline;fill:url(#linearGradient4941-8-1);fill-opacity:1;fill-rule:evenodd;stroke:url(#linearGradient4628);stroke-width:0.2;stroke-linecap:butt;stroke-linejoin:miter;stroke-miterlimit:4;stroke-dasharray:none;stroke-opacity:1"
       d="m 374.54845,359.33577 7.99573,0 0,-5.22798 6.15055,0 0,5.22798 7.99573,0 0,-5.22798 6.15056,0 0,5.22798 7.99573,0 0,-5.22798 6.15056,0 0,5.22798 7.99573,0 0,-5.22798 6.15056,0 0,5.22798 7.99573,0 0,-5.22798 6.15056,0 0,5.22798 7.99573,0 0,-5.22798 6.15056,0 0,5.22798 7.99573,0 0,-5.22798 6.15056,0 0,5.22798 7.99572,0 0,-5.22798 6.15056,0 0,5.22798 7.99573,0 0,-5.22798 6.15056,0 0,5.22798 8.12668,0 0,82.41423 -135.25588,8.85827"
       id="path4794-50-4-1"
       inkscape:connector-curvature="0"
       sodipodi:nodetypes="cccccccccccccccccccccccccccccccccccccccc" />
    <path
       style="display:inline;fill:url(#linearGradient4339-5);fill-opacity:1;fill-rule:evenodd;stroke:none;stroke-width:1px;stroke-linecap:butt;stroke-linejoin:miter;stroke-opacity:1"
       d="m 326.1647,206.09251 c -8.9531,-0.88261 -17.9062,-0.84491 -26.85931,0 l 13.42965,-52.21968 z"
       id="path4214-0-4"
       inkscape:connector-curvature="0"
       sodipodi:nodetypes="cccc" />
    <path
       style="display:inline;fill:url(#linearGradient4339-4);fill-opacity:1;fill-rule:evenodd;stroke:none;stroke-width:1px;stroke-linecap:butt;stroke-linejoin:miter;stroke-opacity:1"
       d="m 369.27359,240.74045 c -8.68587,-0.36955 -17.37173,-0.35377 -26.0576,0 l 13.0288,-21.8646 z"
       id="path4214-0-1"
       inkscape:connector-curvature="0"
       sodipodi:nodetypes="cccc" />
    <path
       style="display:inline;fill:url(#linearGradient4339-4-6-6);fill-opacity:1;fill-rule:evenodd;stroke:none;stroke-width:1px;stroke-linecap:butt;stroke-linejoin:miter;stroke-opacity:1"
       d="m 167.59607,240.74045 c -8.68587,0.64623 -17.37173,0.69046 -26.0576,0 l 13.0288,-21.8646 z"
       id="path4214-0-1-6-4"
       inkscape:connector-curvature="0"
       sodipodi:nodetypes="cccc" />
    <path
       style="display:inline;fill:#000000;fill-opacity:1;fill-rule:evenodd;stroke:#000000;stroke-width:0.21310055;stroke-linecap:butt;stroke-linejoin:miter;stroke-miterlimit:4;stroke-dasharray:none;stroke-opacity:1"
       d="m 154.56727,218.87585 0,-8.79451 13.45341,0.8822 -7.45401,0.66166 7.13682,0.52381 -13.13622,0.90978"
       id="path4307-8-8-3"
       inkscape:connector-curvature="0" />
    <path
       style="display:inline;fill:url(#linearGradient4451-9-8);fill-opacity:1;fill-rule:evenodd;stroke:none;stroke-width:1px;stroke-linecap:butt;stroke-linejoin:miter;stroke-opacity:1"
       d="m 162.42256,249.24288 0,-8.67735 c -5.3357,-0.58514 -10.5808,-0.63395 -15.71058,0 l 0,8.67735 z"
       id="path4412-5-9-1"
       inkscape:connector-curvature="0"
       sodipodi:nodetypes="ccccc" />
    <path
       style="display:inline;fill:url(#linearGradient4443-44-8);fill-opacity:1;fill-rule:evenodd;stroke:none;stroke-width:1px;stroke-linecap:butt;stroke-linejoin:miter;stroke-opacity:1"
       d="m 167.69429,306.06588 0,-51.50515 4.58344,-1.20605 0,-4.1118 c -11.80697,-0.81283 -23.61395,-0.7521 -35.42092,0 l 0,4.1118 4.58344,1.20605 0,51.50515 13.12702,0 z"
       id="path4387-1-2-3"
       inkscape:connector-curvature="0"
       sodipodi:nodetypes="cccccccccc" />
    <path
       style="display:inline;fill:url(#linearGradient4443-4-0);fill-opacity:1;fill-rule:evenodd;stroke:none;stroke-width:1px;stroke-linecap:butt;stroke-linejoin:miter;stroke-opacity:1"
       d="m 173.05832,450.60827 0,-131.84422 6.60084,-2.87985 0,-9.81832 c -16.92985,-0.5918 -33.93359,-0.59244 -51.01146,0 l 0,9.81832 6.60084,2.87985 0,131.84422 c 12.87644,5.73679 25.51452,6.46798 37.80978,0 z"
       id="path4387-1-1-1"
       inkscape:connector-curvature="0"
       sodipodi:nodetypes="ccccccccc" />
    <path
       style="display:inline;fill:url(#linearGradient4339-4-2);fill-opacity:1;fill-rule:evenodd;stroke:none;stroke-width:1px;stroke-linecap:butt;stroke-linejoin:miter;stroke-opacity:1"
       d="m 167.59607,240.74045 c -8.68587,-0.36955 -17.37173,-0.35377 -26.0576,0 l 13.0288,-21.8646 z"
       id="path4214-0-1-1"
       inkscape:connector-curvature="0"
       sodipodi:nodetypes="cccc" />
  </g>
</svg>
