<?xml version="1.0" encoding="UTF-8" standalone="no"?>
<!-- Created with Inkscape (http://www.inkscape.org/) -->

<svg
   xmlns:dc="http://purl.org/dc/elements/1.1/"
   xmlns:cc="http://creativecommons.org/ns#"
   xmlns:rdf="http://www.w3.org/1999/02/22-rdf-syntax-ns#"
   xmlns:svg="http://www.w3.org/2000/svg"
   xmlns="http://www.w3.org/2000/svg"
   xmlns:xlink="http://www.w3.org/1999/xlink"
   xmlns:sodipodi="http://sodipodi.sourceforge.net/DTD/sodipodi-0.dtd"
   xmlns:inkscape="http://www.inkscape.org/namespaces/inkscape"
   width="143.93333mm"
   height="166.22888mm"
   viewBox="0 0 510 588.99997"
   id="svg2"
   version="1.1"
   inkscape:version="0.91 r13725"
   sodipodi:docname="Phoenix highland.svg">
  <defs
     id="defs4">
    <linearGradient
       inkscape:collect="always"
       id="linearGradient4155">
      <stop
         style="stop-color:#8f5944;stop-opacity:1"
         offset="0"
         id="stop4157" />
      <stop
         style="stop-color:#774022;stop-opacity:1"
         offset="1"
         id="stop4159" />
    </linearGradient>
    <linearGradient
       inkscape:collect="always"
       xlink:href="#linearGradient4155"
       id="linearGradient4490"
       x1="420.15393"
       y1="247.93712"
       x2="349.62836"
       y2="520.0321"
       gradientUnits="userSpaceOnUse"
       gradientTransform="matrix(3.5473407,0,0,3.5473407,-866.11441,-1363.7499)" />
    <linearGradient
       inkscape:collect="always"
       xlink:href="#linearGradient4155"
       id="linearGradient4205"
       x1="301.71497"
       y1="363.68607"
       x2="226.0177"
       y2="692.86719"
       gradientUnits="userSpaceOnUse" />
    <linearGradient
       inkscape:collect="always"
       xlink:href="#linearGradient4155"
       id="linearGradient4213"
       x1="411.21616"
       y1="221.23941"
       x2="423.78574"
       y2="369.19736"
       gradientUnits="userSpaceOnUse" />
    <linearGradient
       inkscape:collect="always"
       xlink:href="#linearGradient4155"
       id="linearGradient4229"
       x1="158.95572"
       y1="130.11499"
       x2="176.38017"
       y2="295.19205"
       gradientUnits="userSpaceOnUse" />
    <filter
       inkscape:collect="always"
       style="color-interpolation-filters:sRGB"
       id="filter4257"
       x="-0.0058066897"
       width="1.0116134"
       y="-0.0094730504"
       height="1.0189461">
      <feGaussianBlur
         inkscape:collect="always"
         stdDeviation="1.0723635"
         id="feGaussianBlur4259" />
    </filter>
    <filter
       inkscape:collect="always"
       style="color-interpolation-filters:sRGB"
       id="filter4157"
       x="-0.0031532594"
       width="1.0063065"
       y="-0.0041942195"
       height="1.0083884">
      <feGaussianBlur
         inkscape:collect="always"
         stdDeviation="0.59992512"
         id="feGaussianBlur4159" />
    </filter>
  </defs>
  <sodipodi:namedview
     id="base"
     pagecolor="#ffffff"
     bordercolor="#666666"
     borderopacity="0"
     inkscape:pageopacity="0"
     inkscape:pageshadow="2"
     inkscape:zoom="0.82269504"
     inkscape:cx="70.073288"
     inkscape:cy="256.66534"
     inkscape:document-units="px"
     inkscape:current-layer="layer1"
     showgrid="false"
     inkscape:snap-global="true"
     inkscape:object-paths="true"
     inkscape:object-nodes="true"
     inkscape:snap-smooth-nodes="false"
     inkscape:window-width="1470"
     inkscape:window-height="841"
     inkscape:window-x="-8"
     inkscape:window-y="-8"
     inkscape:window-maximized="1"
     showguides="true"
     inkscape:guide-bbox="true"
     inkscape:snap-intersection-paths="true"
     showborder="true"
     fit-margin-top="0"
     fit-margin-left="0"
     fit-margin-right="0"
     fit-margin-bottom="0"
     inkscape:snap-nodes="false" />
  <metadata
     id="metadata7">
    <rdf:RDF>
      <cc:Work
         rdf:about="">
        <dc:format>image/svg+xml</dc:format>
        <dc:type
           rdf:resource="http://purl.org/dc/dcmitype/StillImage" />
        <dc:title />
      </cc:Work>
    </rdf:RDF>
  </metadata>
  <g
     inkscape:label="Ebene 1"
     inkscape:groupmode="layer"
     id="layer1"
     transform="translate(-85.007331,-240.86218)"
     style="display:inline">
    <path
       sodipodi:type="star"
       style="fill:url(#linearGradient4490);fill-opacity:1.0;stroke:none;stroke-width:8.1496067;stroke-linecap:round;stroke-linejoin:miter;stroke-miterlimit:4;stroke-dasharray:none;stroke-opacity:1"
       id="path4136"
       sodipodi:sides="6"
       sodipodi:cx="339.98145"
       sodipodi:cy="535.36218"
       sodipodi:r1="1043.2921"
       sodipodi:r2="903.51752"
       sodipodi:arg1="0.52359878"
       sodipodi:arg2="1.0471976"
       inkscape:flatsided="true"
       inkscape:rounded="0"
       inkscape:randomized="0"
       d="m 1243.4989,1057.0082 -903.51746,521.6461 -903.51747,-521.6461 0,-1043.292078 903.51748,-521.646052 903.51745,521.646059 z"
       transform="matrix(0.28223029,0,0,0.28227952,244.04692,384.2404)" />
  </g>
  <g
     inkscape:groupmode="layer"
     id="layer2"
     inkscape:label="Ebene 2">
    <path
       style="fill:url(#linearGradient4229);fill-opacity:1.0;fill-rule:evenodd;stroke:none;stroke-width:1px;stroke-linecap:butt;stroke-linejoin:miter;stroke-opacity:1;filter:url(#filter4257)"
       d="m 46.307358,164.38688 c -10.042611,-4.01704 -36.173956,9.47492 -46.31470542,9.47492 l -8.6e-7,204.8178 c 0,0 339.61725828,-107.72797 443.22538828,-175.47175 -5.37879,-6.1472 -39.19433,-31.62922 -44.82758,-37.54412 -7.18009,-7.5391 -10.36139,-9.01948 -17.24138,-15.51725 -9.81451,-9.26926 -27.14052,-40.79413 -41.37931,-42.57398 -4.55339,-0.56917 -11.96726,-0.94544 -16.37931,0 -35.06894,7.27933 -62.83171,25.96974 -88.40619,42.24138 -7.28697,4.61508 -32.86534,20.68301 -40.13034,25.3326 -19.17096,12.26942 -62.3929,21.25907 -82.53237,32.06261 C 86.812825,190.45604 75.618237,176.11123 46.307358,164.38688 Z"
       id="path4173"
       inkscape:connector-curvature="0"
       sodipodi:nodetypes="scccsssccscs" />
    <path
       style="fill:url(#linearGradient4213);fill-opacity:1.0;fill-rule:evenodd;stroke:none;stroke-width:1px;stroke-linecap:butt;stroke-linejoin:miter;stroke-opacity:1;filter:url(#filter4157)"
       d="M 509.99263,441.75 128.13962,515.74859 53.379306,377.81033 C 80.407696,361.58069 182.92756,295.8698 206.89655,275.20687 c 32.74044,-19.32523 51.634,-61.69271 84.48276,-75.86207 17.45943,-4.16982 24.23393,4.21073 36.2069,10.34483 C 343.48167,217.78764 375,232.96549 375,232.96549 c 0,0 31.26725,-43.50306 47.41379,-50.23079 15.0414,-4.55182 28.22482,-15.77046 43.10345,-7.03909 2.43678,1.52298 11.50947,7.63263 11.50947,7.63263 0,0 22.43224,-4.49875 32.96594,-8.89747 z"
       id="path4187"
       inkscape:connector-curvature="0"
       sodipodi:nodetypes="cccccccccccc" />
    <path
       style="fill:url(#linearGradient4205);fill-opacity:1;fill-rule:evenodd;stroke:none;stroke-width:1px;stroke-linecap:butt;stroke-linejoin:miter;stroke-opacity:1"
       d="m 509.99265,441.75 -255,147.25 -254.99999846,-147.25 2.8e-7,-66.17949 C 9.724485,374.14854 24.309521,352.33702 32.758621,346.70429 c 8.574847,-6.70201 19.493542,-11.03032 28.448276,-17.24138 7.580358,-5.19937 11.660029,-12.69024 19.827586,-14.65517 10.014542,10.756 22.417937,-5.29992 32.758617,-4.07276 4.51252,0.64464 8.28445,3.70554 12.06897,6.03448 23.91051,19.60219 35.71096,43.22535 58.62069,61.5395 22.61105,26.43539 76.98852,45.47484 76.98852,45.47484 0,0 19.64128,-15.00992 33.35631,-24.78519 11.28248,-11.41347 26.32142,-19.05634 37.06896,-28.44827 12.0792,-10.72352 9.81466,-11.73432 18.10345,-16.37931 9.27227,-2.08139 14.96039,-12.47442 21.55172,-17.24138 3.59525,-2.4177 21.72,-12.35556 25,-11.2069 13.19101,6.12661 14.40731,21.89748 19.82759,33.62069 2.62642,5.25284 7.39103,9.9393 9.48276,15.51724 1.06047,2.82794 1.60128,7.02011 3.44827,9.48276 0.38553,0.51404 1.33861,0.34803 1.72414,0.86207 2.80036,7.26443 14.09822,13.59386 14.09822,13.59386 0,0 23.86547,-22.40077 35.90178,-17.70735 4.30627,2.15313 8.96131,6.70073 13.79311,6.03448 6.27233,-0.86488 9.27696,-5.37677 15.10207,-11.55599 z"
       id="path4167"
       inkscape:connector-curvature="0"
       sodipodi:nodetypes="cccccccccccccccccsscccscc" />
  </g>
</svg>
