<?xml version="1.0" encoding="UTF-8" standalone="no"?>
<!-- Created with Inkscape (http://www.inkscape.org/) -->

<svg
   xmlns:dc="http://purl.org/dc/elements/1.1/"
   xmlns:cc="http://creativecommons.org/ns#"
   xmlns:rdf="http://www.w3.org/1999/02/22-rdf-syntax-ns#"
   xmlns:svg="http://www.w3.org/2000/svg"
   xmlns="http://www.w3.org/2000/svg"
   xmlns:xlink="http://www.w3.org/1999/xlink"
   xmlns:sodipodi="http://sodipodi.sourceforge.net/DTD/sodipodi-0.dtd"
   xmlns:inkscape="http://www.inkscape.org/namespaces/inkscape"
   width="143.93333mm"
   height="166.22888mm"
   viewBox="0 0 510 588.99997"
   id="svg2"
   version="1.1"
   inkscape:version="0.91 r13725"
   sodipodi:docname="Phoenix montains.svg">
  <defs
     id="defs4">
    <linearGradient
       inkscape:collect="always"
       id="linearGradient4165">
      <stop
         style="stop-color:#e4e6eb;stop-opacity:1"
         offset="0"
         id="stop4167" />
      <stop
         style="stop-color:#aea097;stop-opacity:1"
         offset="1"
         id="stop4169" />
    </linearGradient>
    <linearGradient
       inkscape:collect="always"
       xlink:href="#linearGradient4165"
       id="linearGradient4490"
       x1="428.76456"
       y1="231.95854"
       x2="366.34866"
       y2="596.67865"
       gradientUnits="userSpaceOnUse"
       gradientTransform="matrix(3.5473407,0,0,3.5473407,-866.11441,-1363.7499)" />
    <linearGradient
       inkscape:collect="always"
       xlink:href="#linearGradient4165"
       id="linearGradient4203"
       x1="266.0961"
       y1="181.6515"
       x2="273.78574"
       y2="341.09979"
       gradientUnits="userSpaceOnUse" />
    <linearGradient
       inkscape:collect="always"
       xlink:href="#linearGradient4165"
       id="linearGradient4211"
       x1="294.58466"
       y1="261.87396"
       x2="267.92368"
       y2="727.20691"
       gradientUnits="userSpaceOnUse" />
    <linearGradient
       inkscape:collect="always"
       xlink:href="#linearGradient4165"
       id="linearGradient4229"
       x1="327.23404"
       y1="215.81808"
       x2="327.19955"
       y2="368.1629"
       gradientUnits="userSpaceOnUse" />
    <linearGradient
       inkscape:collect="always"
       xlink:href="#linearGradient4165"
       id="linearGradient4241"
       x1="305.88367"
       y1="98.166763"
       x2="308.95438"
       y2="291.72906"
       gradientUnits="userSpaceOnUse" />
    <filter
       inkscape:collect="always"
       style="color-interpolation-filters:sRGB"
       id="filter4301"
       x="-0.0017358824"
       width="1.0034718"
       y="-0.0038871567"
       height="1.0077743">
      <feGaussianBlur
         inkscape:collect="always"
         stdDeviation="0.36887501"
         id="feGaussianBlur4303" />
    </filter>
    <filter
       inkscape:collect="always"
       style="color-interpolation-filters:sRGB"
       id="filter4317"
       x="-0.033992366"
       width="1.0679847"
       y="-0.033736781"
       height="1.0674736">
      <feGaussianBlur
         inkscape:collect="always"
         stdDeviation="0.80585347"
         id="feGaussianBlur4319" />
    </filter>
    <filter
       inkscape:collect="always"
       style="color-interpolation-filters:sRGB"
       id="filter4321"
       x="-0.036185417"
       width="1.0723708"
       y="-0.02451908"
       height="1.0490382">
      <feGaussianBlur
         inkscape:collect="always"
         stdDeviation="0.80585347"
         id="feGaussianBlur4323" />
    </filter>
    <filter
       inkscape:collect="always"
       style="color-interpolation-filters:sRGB"
       id="filter4325"
       x="-0.0037922516"
       width="1.0075845"
       y="-0.0065371832"
       height="1.0130744">
      <feGaussianBlur
         inkscape:collect="always"
         stdDeviation="0.80585347"
         id="feGaussianBlur4327" />
    </filter>
    <filter
       inkscape:collect="always"
       style="color-interpolation-filters:sRGB"
       id="filter4337"
       x="-0.041867771"
       width="1.0837355"
       y="-0.024973759"
       height="1.0499475">
      <feGaussianBlur
         inkscape:collect="always"
         stdDeviation="0.76697431"
         id="feGaussianBlur4339" />
    </filter>
    <filter
       inkscape:collect="always"
       style="color-interpolation-filters:sRGB"
       id="filter4341"
       x="-0.0070100084"
       width="1.01402"
       y="-0.0074005771"
       height="1.0148012">
      <feGaussianBlur
         inkscape:collect="always"
         stdDeviation="0.76697431"
         id="feGaussianBlur4343" />
    </filter>
  </defs>
  <sodipodi:namedview
     id="base"
     pagecolor="#ffffff"
     bordercolor="#666666"
     borderopacity="0"
     inkscape:pageopacity="0"
     inkscape:pageshadow="2"
     inkscape:zoom="1"
     inkscape:cx="57.31649"
     inkscape:cy="248.39756"
     inkscape:document-units="px"
     inkscape:current-layer="layer2"
     showgrid="false"
     inkscape:snap-global="true"
     inkscape:object-paths="true"
     inkscape:object-nodes="true"
     inkscape:snap-smooth-nodes="false"
     inkscape:window-width="1470"
     inkscape:window-height="841"
     inkscape:window-x="-8"
     inkscape:window-y="-8"
     inkscape:window-maximized="1"
     showguides="true"
     inkscape:guide-bbox="true"
     inkscape:snap-intersection-paths="true"
     showborder="true"
     fit-margin-top="0"
     fit-margin-left="0"
     fit-margin-right="0"
     fit-margin-bottom="0"
     inkscape:snap-nodes="false" />
  <metadata
     id="metadata7">
    <rdf:RDF>
      <cc:Work
         rdf:about="">
        <dc:format>image/svg+xml</dc:format>
        <dc:type
           rdf:resource="http://purl.org/dc/dcmitype/StillImage" />
        <dc:title />
      </cc:Work>
    </rdf:RDF>
  </metadata>
  <g
     inkscape:label="Ebene 1"
     inkscape:groupmode="layer"
     id="layer1"
     transform="translate(-85.007331,-240.86218)"
     style="display:inline">
    <path
       sodipodi:type="star"
       style="fill:url(#linearGradient4490);fill-opacity:1.0;stroke:none;stroke-width:8.1496067;stroke-linecap:round;stroke-linejoin:miter;stroke-miterlimit:4;stroke-dasharray:none;stroke-opacity:1"
       id="path4136"
       sodipodi:sides="6"
       sodipodi:cx="339.98145"
       sodipodi:cy="535.36218"
       sodipodi:r1="1043.2921"
       sodipodi:r2="903.51752"
       sodipodi:arg1="0.52359878"
       sodipodi:arg2="1.0471976"
       inkscape:flatsided="true"
       inkscape:rounded="0"
       inkscape:randomized="0"
       d="m 1243.4989,1057.0082 -903.51746,521.6461 -903.51747,-521.6461 0,-1043.292078 903.51748,-521.646052 903.51745,521.646059 z"
       transform="matrix(0.28223029,0,0,0.28227952,244.04692,384.2404)" />
  </g>
  <g
     inkscape:groupmode="layer"
     id="layer2"
     inkscape:label="Ebene 2">
    <path
       style="fill:url(#linearGradient4241);fill-opacity:1.0;fill-rule:evenodd;stroke:none;stroke-width:1px;stroke-linecap:butt;stroke-linejoin:miter;stroke-opacity:1;filter:url(#filter4341)"
       d="m 178.44828,247.62066 31.89655,-43.96551 15.51724,-25 12.93103,-18.96552 15.51724,-27.58621 1.72414,-4.31034 18.10345,-9.48276 15.51724,-21.551724 2.58621,-9.482759 3.44828,-7.758621 2.5862,-4.310344 3.44828,-11.206897 4.31034,3.448276 13.79311,16.37931 26.72413,12.068966 6.03449,12.068963 5.17241,22.4138 0,7.75862 17.24138,23.27586 22.41379,43.10345 14.87723,32.70719 -262.58718,75.50459 z"
       id="path4231"
       inkscape:connector-curvature="0"
       sodipodi:nodetypes="ccccccccccccccccccccccc" />
    <path
       style="fill:url(#linearGradient4203);fill-opacity:1.0;fill-rule:evenodd;stroke:none;stroke-width:1px;stroke-linecap:butt;stroke-linejoin:miter;stroke-opacity:1;filter:url(#filter4325)"
       d="m 380.17241,194.17239 10.34483,-26.72414 14.89275,-21.55172 22.50882,10.34482 6.03448,9.48276 10.34483,16.37931 15.51724,25.86207 12.06897,14.65517 12.06896,12.93104 6.65899,18.10345 9.38772,11.20689 9.99265,7.75862 0,169.12934 -509.9999986,0 7.5e-7,-169.12934 53.45562385,-43.96551 8.62069,-8.62069 7.75862,-9.48276 10.344828,-8.62069 24.999996,-28.44828 6.03449,-9.48275 0,-0.86207 2.5862,0 18.10345,18.96551 3.44828,7.75862 19.82758,28.44828 24.13793,27.58621 8.62069,5.17241 13.79311,6.03448 82.75862,35.34483 60.34483,-50.86207 z"
       id="path4189"
       inkscape:connector-curvature="0"
       sodipodi:nodetypes="cccccccccccccccccccccccccccccccc" />
    <path
       style="fill:url(#linearGradient4229);fill-opacity:1.0;fill-rule:evenodd;stroke:none;stroke-width:1px;stroke-linecap:butt;stroke-linejoin:miter;stroke-opacity:1;filter:url(#filter4301)"
       d="m -0.0073486,441.75 6.7e-7,-150.93065 17.93079893,6.74033 15.528457,-19.40516 19.939771,19.27076 29.366942,-4.11496 29.310349,-9.48276 2.5862,-3.44827 1.72414,0 7.75862,-3.44828 6.03448,-2.58621 18.10345,25 45.68966,-33.62069 7.75862,-8.62069 16.37931,-18.96551 18.96552,-24.13793 16.37931,10.34482 14.23179,14.11412 110.98783,96.59259 53.22865,-8.98257 14.65517,-12.93103 15.51725,-12.06897 3.44827,-1.72414 23.27586,-22.41379 21.19955,13.88834 0,150.93065 z"
       id="path4221"
       inkscape:connector-curvature="0"
       sodipodi:nodetypes="ccccccccccccccccccccccccccc" />
    <path
       style="fill:url(#linearGradient4211);fill-opacity:1;fill-rule:evenodd;stroke:none;stroke-width:1px;stroke-linecap:butt;stroke-linejoin:miter;stroke-opacity:1"
       d="m 509.99265,441.75 -0.50989,-74.30175 -21.39046,0 L 469.82759,352.79308 450,345.89653 l -13.7931,-13.79311 -28.44828,-18.10344 -12.94652,-9.88026 -4.29486,-27.18871 -10.34483,-27.58621 -10.34482,0.86207 -25,-8.62069 -0.90768,-19.21354 -11.77343,-16.7857 -34.34036,5.37774 -23.2709,7.995 -8.15591,20.90236 -22.41379,40.51725 -9.48276,18.10344 -49.13793,30.17242 -13.79311,20.68965 -8.62069,7.75862 -44.82758,-20.68965 -13.79311,-23.27586 -7.758616,-5.17242 -13.793103,-14.65517 -6.034483,-6.03448 -0.862069,-2.58621 -4.310345,-4.31034 -3.448276,-10.34483 -5.172414,-3.44828 -16.37931,20.68966 -0.862069,3.44827 -4.310345,7.75862 -2.586207,18.96552 -6.034482,6.03448 -8.62069,15.51725 -24.14527927,28.44827 -3.3e-7,74.30175 L 254.99265,589 Z"
       id="path4183"
       inkscape:connector-curvature="0"
       sodipodi:nodetypes="ccccccccccccccccccccccccccccccccccccccccc" />
    <path
       style="fill:#ffffff;fill-opacity:1;fill-rule:evenodd;stroke:none;stroke-width:1px;stroke-linecap:butt;stroke-linejoin:miter;stroke-opacity:1"
       d="m 318.16396,244.6059 -5.28681,19.31666 7.01095,-1.21322 14.65517,2.58621 -12.37154,20.19563 -5.73191,32.39058 -8.62069,17.24138 29.31035,-26.72414 16.50529,-5.41942 8.49471,19.21252 18.96551,8.62069 7.75862,20.68966 8.67626,11.69597 -1.7797,-15.14425 8.36872,-11.38844 17.5291,-5.41942 -19.12725,-7.69316 -14.9627,-13.85856 -9.04925,-27.15766 -8.62069,-5.17241 -4.00777,-7.94512 -6.33706,-2.39971 -1.72414,-11.07597 -8.99368,-3.94724 -5.66149,1.23011 -10.33987,-8.30821 -7.27451,-19.8881 z"
       id="path4253"
       inkscape:connector-curvature="0"
       sodipodi:nodetypes="cccccccccccccccccccccccccccc" />
    <path
       style="fill:#ffffff;fill-opacity:1;fill-rule:evenodd;stroke:none;stroke-width:1px;stroke-linecap:butt;stroke-linejoin:miter;stroke-opacity:1"
       d="m 56.442298,320.45776 3.90253,21.12842 19.419771,-0.43361 20.266361,7.74314 8.58973,16.8284 -0.83111,-18.99131 -21.582683,-18.93972 -1.269884,-12.94652 -11.630191,-15.94053 -8.65165,-2.57847 z"
       id="path4255"
       inkscape:connector-curvature="0"
       sodipodi:nodetypes="ccccccccccc" />
    <path
       style="fill:#ffffff;fill-opacity:1;fill-rule:evenodd;stroke:none;stroke-width:1px;stroke-linecap:butt;stroke-linejoin:miter;stroke-opacity:1;filter:url(#filter4321)"
       d="m 418.96552,186.41377 4.31034,29.31034 12.93104,5.17242 8.62069,13.7931 15.51724,8.62069 3.44827,7.75862 0,3.44828 2.58621,-10.34483 -9.48276,-14.65517 -12.93103,-18.96552 -2.58621,-6.03448 -8.62069,-11.2069 -6.03448,-9.48276 -13.79311,-8.18966 z"
       id="path4257"
       inkscape:connector-curvature="0"
       sodipodi:nodetypes="ccccccccccccccc" />
    <path
       style="fill:#ffffff;fill-opacity:1;fill-rule:evenodd;stroke:none;stroke-width:1px;stroke-linecap:butt;stroke-linejoin:miter;stroke-opacity:1;filter:url(#filter4337)"
       d="m 309.48276,114.86204 9.48276,12.93104 1.72414,0 -1.72414,10.34483 0,11.20689 0,2.58621 7.75862,5.17241 19.82758,13.79311 4.31035,4.31034 2.58621,0.86207 -7.75862,-11.2069 -2.58621,-33.62069 0,-7.75862 -3.44828,-7.75862 -10.34483,-6.03448 -14.22413,-7.32759 z"
       id="path4261"
       inkscape:connector-curvature="0"
       sodipodi:nodetypes="ccccccccccccccccc" />
    <path
       style="fill:#ffffff;fill-opacity:1;fill-rule:evenodd;stroke:none;stroke-width:1px;stroke-linecap:butt;stroke-linejoin:miter;stroke-opacity:1;filter:url(#filter4317)"
       d="m 110.34483,216.58618 -4.31035,11.2069 18.96552,11.2069 2.58621,14.65517 19.82758,-1.72414 15.51724,6.03448 -6.89655,-15.51724 -9.48276,-18.10345 -6.89655,-6.03448 -25,-17.67242 z"
       id="path4263"
       inkscape:connector-curvature="0"
       sodipodi:nodetypes="ccccccccccc" />
  </g>
</svg>
