<?xml version="1.0" encoding="UTF-8" standalone="no"?>
<!-- Created with Inkscape (http://www.inkscape.org/) -->

<svg
   xmlns:dc="http://purl.org/dc/elements/1.1/"
   xmlns:cc="http://creativecommons.org/ns#"
   xmlns:rdf="http://www.w3.org/1999/02/22-rdf-syntax-ns#"
   xmlns:svg="http://www.w3.org/2000/svg"
   xmlns="http://www.w3.org/2000/svg"
   xmlns:xlink="http://www.w3.org/1999/xlink"
   xmlns:sodipodi="http://sodipodi.sourceforge.net/DTD/sodipodi-0.dtd"
   xmlns:inkscape="http://www.inkscape.org/namespaces/inkscape"
   width="143.93333mm"
   height="166.22888mm"
   viewBox="0 0 510 588.99997"
   id="svg2"
   version="1.1"
   inkscape:version="0.91 r13725"
   sodipodi:docname="Phoenix Water.svg">
  <defs
     id="defs4">
    <linearGradient
       id="linearGradient4389"
       inkscape:collect="always">
      <stop
         id="stop4391"
         offset="0"
         style="stop-color:#8cd0ea;stop-opacity:1" />
      <stop
         id="stop4393"
         offset="1"
         style="stop-color:#85dafc;stop-opacity:0;" />
    </linearGradient>
    <linearGradient
       id="linearGradient4383"
       inkscape:collect="always">
      <stop
         id="stop4385"
         offset="0"
         style="stop-color:#8cd0ea;stop-opacity:1" />
      <stop
         id="stop4387"
         offset="1"
         style="stop-color:#85dafc;stop-opacity:0;" />
    </linearGradient>
    <linearGradient
       id="linearGradient4377"
       inkscape:collect="always">
      <stop
         id="stop4379"
         offset="0"
         style="stop-color:#8cd0ea;stop-opacity:1" />
      <stop
         id="stop4381"
         offset="1"
         style="stop-color:#85dafc;stop-opacity:0;" />
    </linearGradient>
    <linearGradient
       inkscape:collect="always"
       id="linearGradient4492">
      <stop
         style="stop-color:#7ec0df;stop-opacity:1"
         offset="0"
         id="stop4494" />
      <stop
         style="stop-color:#5a709e;stop-opacity:1"
         offset="1"
         id="stop4496" />
    </linearGradient>
    <linearGradient
       inkscape:collect="always"
       xlink:href="#linearGradient4492"
       id="linearGradient4490"
       x1="242.53363"
       y1="334.44174"
       x2="287.17874"
       y2="798.97125"
       gradientUnits="userSpaceOnUse"
       gradientTransform="matrix(3.5473407,0,0,3.5473407,-866.11441,-1363.7499)" />
    <linearGradient
       inkscape:collect="always"
       xlink:href="#linearGradient4383"
       id="linearGradient4351"
       x1="245.12589"
       y1="409.22101"
       x2="270.09641"
       y2="707.85999"
       gradientUnits="userSpaceOnUse" />
    <linearGradient
       inkscape:collect="always"
       xlink:href="#linearGradient4389"
       id="linearGradient4359"
       x1="244.26828"
       y1="304.41629"
       x2="270.93665"
       y2="463.60492"
       gradientUnits="userSpaceOnUse"
       gradientTransform="translate(0,-15.944883)" />
    <linearGradient
       inkscape:collect="always"
       xlink:href="#linearGradient4377"
       id="linearGradient4375"
       x1="245.27402"
       y1="206.28432"
       x2="258.59732"
       y2="296.14108"
       gradientUnits="userSpaceOnUse" />
    <linearGradient
       gradientTransform="translate(14.955925,-25.70994)"
       inkscape:collect="always"
       xlink:href="#linearGradient4432"
       id="linearGradient4438"
       x1="264.57733"
       y1="375.47562"
       x2="313.24875"
       y2="261.68253"
       gradientUnits="userSpaceOnUse" />
    <linearGradient
       inkscape:collect="always"
       id="linearGradient4432">
      <stop
         style="stop-color:#207194;stop-opacity:1"
         offset="0"
         id="stop4434" />
      <stop
         style="stop-color:#c8ecfc;stop-opacity:0;"
         offset="1"
         id="stop4436" />
    </linearGradient>
    <filter
       inkscape:collect="always"
       style="color-interpolation-filters:sRGB"
       id="filter4509"
       x="-0.00086252987"
       width="1.0017251"
       y="-0.0019712725"
       height="1.0039425">
      <feGaussianBlur
         inkscape:collect="always"
         stdDeviation="0.1832876"
         id="feGaussianBlur4511" />
    </filter>
    <filter
       inkscape:collect="always"
       style="color-interpolation-filters:sRGB"
       id="filter4517"
       x="-0.0020087587"
       width="1.0040175"
       y="-0.0029805063"
       height="1.005961">
      <feGaussianBlur
         inkscape:collect="always"
         stdDeviation="0.42686122"
         id="feGaussianBlur4519" />
    </filter>
    <filter
       inkscape:collect="always"
       style="color-interpolation-filters:sRGB"
       id="filter4533"
       x="-0.0045465514"
       width="1.0090931"
       y="-0.0050833739"
       height="1.0101667">
      <feGaussianBlur
         inkscape:collect="always"
         stdDeviation="0.96614216"
         id="feGaussianBlur4535" />
    </filter>
    <filter
       inkscape:collect="always"
       style="color-interpolation-filters:sRGB"
       id="filter4573"
       x="-0.022170691"
       width="1.0443414"
       y="-0.02615833"
       height="1.0523167">
      <feGaussianBlur
         inkscape:collect="always"
         stdDeviation="1.1110192"
         id="feGaussianBlur4575" />
    </filter>
    <linearGradient
       inkscape:collect="always"
       xlink:href="#linearGradient4432"
       id="linearGradient4581"
       gradientUnits="userSpaceOnUse"
       gradientTransform="translate(67.134082,-135.05422)"
       x1="264.57733"
       y1="375.47562"
       x2="313.24875"
       y2="261.68253" />
    <linearGradient
       inkscape:collect="always"
       xlink:href="#linearGradient4432"
       id="linearGradient4585"
       gradientUnits="userSpaceOnUse"
       gradientTransform="translate(5.0651161,113.22164)"
       x1="264.57733"
       y1="375.47562"
       x2="313.24875"
       y2="261.68253" />
    <linearGradient
       inkscape:collect="always"
       xlink:href="#linearGradient4432"
       id="linearGradient4589"
       gradientUnits="userSpaceOnUse"
       gradientTransform="translate(-176.83144,27.449166)"
       x1="264.57733"
       y1="375.47562"
       x2="313.24875"
       y2="261.68253" />
  </defs>
  <sodipodi:namedview
     id="base"
     pagecolor="#ffffff"
     bordercolor="#666666"
     borderopacity="0"
     inkscape:pageopacity="0"
     inkscape:pageshadow="2"
     inkscape:zoom="0.76595745"
     inkscape:cx="132.69988"
     inkscape:cy="336.79477"
     inkscape:document-units="px"
     inkscape:current-layer="layer6"
     showgrid="false"
     inkscape:snap-global="true"
     inkscape:object-paths="true"
     inkscape:object-nodes="true"
     inkscape:snap-smooth-nodes="true"
     inkscape:window-width="1473"
     inkscape:window-height="841"
     inkscape:window-x="-8"
     inkscape:window-y="-8"
     inkscape:window-maximized="1"
     showguides="true"
     inkscape:guide-bbox="true"
     inkscape:snap-intersection-paths="true"
     showborder="true"
     fit-margin-top="0"
     fit-margin-left="0"
     fit-margin-right="0"
     fit-margin-bottom="0"
     inkscape:snap-nodes="false" />
  <metadata
     id="metadata7">
    <rdf:RDF>
      <cc:Work
         rdf:about="">
        <dc:format>image/svg+xml</dc:format>
        <dc:type
           rdf:resource="http://purl.org/dc/dcmitype/StillImage" />
        <dc:title />
      </cc:Work>
    </rdf:RDF>
  </metadata>
  <g
     inkscape:label="Hintergrund"
     inkscape:groupmode="layer"
     id="layer1"
     transform="translate(-85.007331,-240.86218)"
     style="display:inline"
     sodipodi:insensitive="true">
    <path
       sodipodi:type="star"
       style="fill:url(#linearGradient4490);fill-opacity:1;stroke:none;stroke-width:8.1496067;stroke-linecap:round;stroke-linejoin:miter;stroke-miterlimit:4;stroke-dasharray:none;stroke-opacity:1"
       id="path4136"
       sodipodi:sides="6"
       sodipodi:cx="339.98145"
       sodipodi:cy="535.36218"
       sodipodi:r1="1043.2921"
       sodipodi:r2="903.51752"
       sodipodi:arg1="0.52359878"
       sodipodi:arg2="1.0471976"
       inkscape:flatsided="true"
       inkscape:rounded="0"
       inkscape:randomized="0"
       d="m 1243.4989,1057.0082 -903.51746,521.6461 -903.51747,-521.6461 0,-1043.292078 903.51748,-521.646052 903.51745,521.646059 z"
       transform="matrix(0.28223029,0,0,0.28227952,244.04692,384.2404)" />
  </g>
  <g
     inkscape:groupmode="layer"
     id="layer4"
     inkscape:label="Wellen"
     style="display:inline">
    <path
       style="opacity:0.875;fill:url(#linearGradient4375);fill-opacity:1;fill-rule:evenodd;stroke:none;stroke-width:1px;stroke-linecap:butt;stroke-linejoin:miter;stroke-opacity:1;filter:url(#filter4533)"
       d="M -0.00734779,258.44442 C 0.70353695,254.80241 8.1360333,245.27487 15.242892,240.03386 50.895781,274.75814 98.97759,211.90854 130.71703,201.81553 c 24.33131,14.22433 50.75086,-9.11411 83.214,-9.52707 49.68377,-11.48122 79.04101,-60.97091 151.93966,-59.39376 -8.15494,10.53448 -19.80803,21.06897 -6.07759,31.60345 41.28111,24.21658 46.65565,19.11381 150.19955,-17.24815 l 0,294.5 -255,147.25 L -0.0073486,441.75 Z"
       id="path4333"
       inkscape:connector-curvature="0"
       sodipodi:nodetypes="ccccccccccc" />
    <path
       style="opacity:1;fill:url(#linearGradient4359);fill-opacity:1;fill-rule:evenodd;stroke:none;stroke-width:1px;stroke-linecap:butt;stroke-linejoin:miter;stroke-opacity:1;filter:url(#filter4517)"
       d="M 1.2155172,364.12929 C 32.052325,338.80268 44.605865,312.26458 111.7993,287.60428 c 10.34213,24.93375 17.0099,33.05678 48.60853,30.01958 38.40754,-3.69166 25.51001,-35.81248 89.83736,-63.66139 9.64857,-4.17711 47.12674,-10.90852 54.34314,0.15656 -13.08138,11.97723 -24.13592,15.42539 -16.30408,31.97397 9.62714,20.34203 38.64014,21.66435 53.79231,19.15877 20.37792,-3.36972 41.39958,-36.18296 67.44057,-29.48029 29.02759,15.73478 67.77321,-9.6423 100.01338,-16.39559 l 0.46214,180.60249 -255,147.25 -254.9999986,-147.25 z"
       id="path4320"
       inkscape:connector-curvature="0"
       sodipodi:nodetypes="ccsscsscccccc" />
    <path
       style="opacity:1;fill:url(#linearGradient4438);fill-opacity:1;fill-rule:evenodd;stroke:none;stroke-width:1px;stroke-linecap:butt;stroke-linejoin:miter;stroke-opacity:1;filter:url(#filter4573)"
       d="m 305.47317,253.80731 c -48.51792,-22.48318 -77.64953,65.57896 -52.58619,88.7931 43.28602,27.25675 119.42122,-8.8954 110.34481,-48.27586 -28.32356,9.314 -37.34984,18.03654 -54.9238,9.19099 -22.7763,-11.46408 -26.75394,-42.00133 -2.83482,-49.70823 z"
       id="path4430"
       inkscape:connector-curvature="0"
       sodipodi:nodetypes="cccsc" />
    <path
       style="fill:url(#linearGradient4351);fill-opacity:1;fill-rule:evenodd;stroke:none;stroke-width:1px;stroke-linecap:butt;stroke-linejoin:miter;stroke-opacity:1;filter:url(#filter4509)"
       d="M -0.0073486,441.75 C 35.174424,428.4279 70.714413,414.50878 96.441189,416.94501 c 2.802634,8.37916 -3.685556,15.43105 13.370691,24.31034 32.63427,16.98903 114.90079,-59.64527 181.54477,-66.00188 3.52246,15.78961 11.07135,32.89488 45.38612,34.72303 36.41929,1.94027 54.83296,-20.87123 78.82063,-29.18003 25.23006,11.37807 64.10505,2.80671 94.42925,-14.94686 l 0,75.90039 -255,147.25 L -0.0073486,441.75"
       id="path4318"
       inkscape:connector-curvature="0"
       sodipodi:nodetypes="ccscsccccc" />
    <path
       sodipodi:nodetypes="cccsc"
       inkscape:connector-curvature="0"
       id="path4579"
       d="m 356.78925,147.91127 c -60.71462,3.43482 -50.55598,46.58275 -19.82757,57.75861 42.74514,24.01148 94.26907,-9.8083 88.79309,-27.5862 -28.32356,9.314 -28.97675,6.27107 -46.66383,-2.34606 -21.24558,-10.35082 -31.78085,-9.61766 -22.30169,-27.82635 z"
       style="opacity:1;fill:url(#linearGradient4581);fill-opacity:1;fill-rule:evenodd;stroke:none;stroke-width:1px;stroke-linecap:butt;stroke-linejoin:miter;stroke-opacity:1;filter:url(#filter4573)" />
    <path
       sodipodi:nodetypes="ccccc"
       inkscape:connector-curvature="0"
       id="path4583"
       d="m 289.07814,386.23463 c -38.69827,3.6142 -65.06817,46.69929 -39.18542,62.5387 55.48364,26.90342 114.80756,-18.22893 129.31033,-47.41379 -28.32356,9.314 -59.59487,16.61945 -59.59487,16.61945 0,0 -40.0092,-13.53567 -30.53004,-31.74436 z"
       style="opacity:1;fill:url(#linearGradient4585);fill-opacity:1;fill-rule:evenodd;stroke:none;stroke-width:1px;stroke-linecap:butt;stroke-linejoin:miter;stroke-opacity:1;filter:url(#filter4573)" />
    <path
       sodipodi:nodetypes="cccsc"
       inkscape:connector-curvature="0"
       id="path4587"
       d="m 113.68581,306.96642 c -31.276546,2.51682 -53.511604,21.61344 -28.448264,44.82758 43.286024,27.25675 102.179844,17.82874 93.103434,-21.55172 -28.32356,9.314 -25.52847,5.409 -43.21555,-3.20813 -21.24559,-10.35082 -30.91878,-1.85904 -21.43962,-20.06773 z"
       style="opacity:1;fill:url(#linearGradient4589);fill-opacity:1;fill-rule:evenodd;stroke:none;stroke-width:1px;stroke-linecap:butt;stroke-linejoin:miter;stroke-opacity:1;filter:url(#filter4573)" />
  </g>
  <g
     inkscape:groupmode="layer"
     id="layer6"
     inkscape:label="Wellen Highlights"
     style="display:inline">
    <path
       style="fill:#b8e8fc;fill-opacity:1;fill-rule:evenodd;stroke:none;stroke-width:1px;stroke-linecap:butt;stroke-linejoin:miter;stroke-opacity:1"
       d="m 35.673249,441.38653 c 13.617468,-6.89957 37.609232,-15.75692 54.739985,-20.29685 -20.256392,1.57325 -41.795656,10.59149 -54.739985,20.29685 z"
       id="path4414"
       inkscape:connector-curvature="0"
       sodipodi:nodetypes="ccc" />
    <path
       sodipodi:nodetypes="ccc"
       inkscape:connector-curvature="0"
       id="path4416"
       d="m 174.68049,439.31228 c 12.29718,-8.23451 84.05412,-52.84032 106.30935,-59.21759 -40.13217,7.33359 -96.43134,48.24852 -106.30935,59.21759 z"
       style="fill:#bce0f0;fill-opacity:1;fill-rule:evenodd;stroke:none;stroke-width:1px;stroke-linecap:butt;stroke-linejoin:miter;stroke-opacity:1" />
    <path
       style="fill:#f8fdff;fill-opacity:1;fill-rule:evenodd;stroke:none;stroke-width:1px;stroke-linecap:butt;stroke-linejoin:miter;stroke-opacity:1"
       d="m 193.9782,323.15048 c 7.41028,-26.19329 41.79056,-49.4421 66.04005,-68.31194 -33.63655,12.89646 -65.90055,44.77539 -66.04005,68.31194 z"
       id="path4418"
       inkscape:connector-curvature="0"
       sodipodi:nodetypes="ccc" />
    <path
       sodipodi:nodetypes="ccc"
       inkscape:connector-curvature="0"
       id="path4420"
       d="m 28.653255,348.69389 c 8.659234,-10.9667 55.535598,-46.31899 75.390055,-51.89137 -21.800193,1.95456 -66.742085,36.53263 -75.390055,51.89137 z"
       style="fill:#b8e9ff;fill-opacity:1;fill-rule:evenodd;stroke:none;stroke-width:1px;stroke-linecap:butt;stroke-linejoin:miter;stroke-opacity:1" />
    <path
       style="fill:#c6e6f4;fill-opacity:1;fill-rule:evenodd;stroke:none;stroke-width:1px;stroke-linecap:butt;stroke-linejoin:miter;stroke-opacity:1"
       d="m 267.76152,177.19647 c 10.45273,-9.27313 62.81514,-35.83167 83.34009,-37.82595 -21.8042,-1.90932 -72.12614,24.22723 -83.34009,37.82595 z"
       id="path4426"
       inkscape:connector-curvature="0"
       sodipodi:nodetypes="ccc" />
  </g>
</svg>
