<?xml version="1.0" encoding="UTF-8" standalone="no"?>
<!-- Created with Inkscape (http://www.inkscape.org/) -->

<svg
   xmlns:dc="http://purl.org/dc/elements/1.1/"
   xmlns:cc="http://creativecommons.org/ns#"
   xmlns:rdf="http://www.w3.org/1999/02/22-rdf-syntax-ns#"
   xmlns:svg="http://www.w3.org/2000/svg"
   xmlns="http://www.w3.org/2000/svg"
   xmlns:xlink="http://www.w3.org/1999/xlink"
   xmlns:sodipodi="http://sodipodi.sourceforge.net/DTD/sodipodi-0.dtd"
   xmlns:inkscape="http://www.inkscape.org/namespaces/inkscape"
   width="143.93333mm"
   height="166.22888mm"
   viewBox="0 0 510 588.99997"
   id="svg2"
   version="1.1"
   inkscape:version="0.91 r13725"
   sodipodi:docname="Phoenix wood.svg">
  <sodipodi:namedview
     id="base"
     pagecolor="#ffffff"
     bordercolor="#666666"
     borderopacity="0"
     inkscape:pageopacity="0"
     inkscape:pageshadow="2"
     inkscape:zoom="0.75466631"
     inkscape:cx="-17.544653"
     inkscape:cy="175.9816"
     inkscape:document-units="px"
     inkscape:current-layer="layer2"
     showgrid="false"
     inkscape:snap-global="true"
     inkscape:object-paths="false"
     inkscape:object-nodes="true"
     inkscape:snap-smooth-nodes="false"
     inkscape:window-width="1473"
     inkscape:window-height="841"
     inkscape:window-x="-8"
     inkscape:window-y="-8"
     inkscape:window-maximized="1"
     showguides="true"
     inkscape:guide-bbox="true"
     inkscape:snap-intersection-paths="true"
     showborder="true"
     fit-margin-top="0"
     fit-margin-left="0"
     fit-margin-right="0"
     fit-margin-bottom="0"
     inkscape:snap-nodes="false" />
  <defs
     id="defs4">
    <linearGradient
       inkscape:collect="always"
       id="linearGradient4203">
      <stop
         style="stop-color:#319410;stop-opacity:1"
         offset="0"
         id="stop4205" />
      <stop
         style="stop-color:#132a1a;stop-opacity:1"
         offset="1"
         id="stop4207" />
    </linearGradient>
    <linearGradient
       id="linearGradient6836"
       inkscape:collect="always">
      <stop
         id="stop6838"
         offset="0"
         style="stop-color:#1d3819;stop-opacity:1" />
      <stop
         id="stop6840"
         offset="1"
         style="stop-color:#20c04f;stop-opacity:1" />
    </linearGradient>
    <linearGradient
       inkscape:collect="always"
       xlink:href="#linearGradient4203"
       id="linearGradient4490"
       x1="401.17633"
       y1="242.22659"
       x2="398.35031"
       y2="520.78656"
       gradientUnits="userSpaceOnUse"
       gradientTransform="matrix(3.5473407,0,0,3.5473407,-866.11441,-1363.7499)" />
    <filter
       id="filter4654"
       style="color-interpolation-filters:sRGB;"
       inkscape:menu-tooltip="Leaves on the ground in Fall, or living foliage"
       inkscape:menu="Scatter"
       inkscape:label="Leaves">
      <feTurbulence
         id="feTurbulence4656"
         result="result6"
         type="fractalNoise"
         numOctaves="5"
         baseFrequency="0.09" />
      <feColorMatrix
         id="feColorMatrix4658"
         in="result6"
         result="result5"
         values="1 0 0 0 0 0 1 0 0 0 0 0 1 0 0 0 0 0 4.9 -2.9 " />
      <feComposite
         id="feComposite4660"
         in="SourceGraphic"
         operator="in"
         in2="result5" />
      <feMorphology
         id="feMorphology4662"
         operator="dilate"
         radius="6"
         result="result3" />
      <feTurbulence
         id="feTurbulence4664"
         result="result91"
         type="fractalNoise"
         numOctaves="1"
         baseFrequency="0.2" />
      <feDisplacementMap
         id="feDisplacementMap4666"
         in2="result91"
         in="result3"
         xChannelSelector="R"
         yChannelSelector="G"
         scale="15"
         result="result4" />
      <feComposite
         id="feComposite4668"
         k3="1"
         k1="0.5"
         result="result2"
         operator="arithmetic"
         in2="result4" />
      <feConvolveMatrix
         id="feConvolveMatrix4670"
         in="result2"
         edgeMode="duplicate"
         divisor="1.5"
         targetY="0"
         targetX="0"
         kernelMatrix="1 0 0 0 2 0 0 0 -1 "
         order="3 3" />
    </filter>
    <linearGradient
       gradientUnits="userSpaceOnUse"
       y2="729.46417"
       x2="285.36737"
       y1="408.21695"
       x1="230.52713"
       id="linearGradient6610"
       xlink:href="#linearGradient4203"
       inkscape:collect="always"
       gradientTransform="translate(-0.01118039,0.00255617)" />
    <linearGradient
       gradientUnits="userSpaceOnUse"
       y2="403.1282"
       x2="388.96011"
       y1="270.09985"
       x1="412.0567"
       id="linearGradient6610-0"
       xlink:href="#linearGradient6836"
       inkscape:collect="always"
       gradientTransform="translate(280.92295,44.38958)" />
    <linearGradient
       gradientUnits="userSpaceOnUse"
       y2="430.53256"
       x2="191.79825"
       y1="274.46899"
       x1="181.83415"
       id="linearGradient6734"
       xlink:href="#linearGradient4203"
       inkscape:collect="always"
       gradientTransform="translate(-0.00197039,-2.2832187e-5)" />
    <linearGradient
       gradientUnits="userSpaceOnUse"
       y2="352.3945"
       x2="255.87538"
       y1="169.3663"
       x1="253.33476"
       id="linearGradient6748"
       xlink:href="#linearGradient4203"
       inkscape:collect="always"
       gradientTransform="translate(-2.1229091e-4,-9.3832187e-5)" />
    <linearGradient
       gradientUnits="userSpaceOnUse"
       y2="306.24338"
       x2="194.97542"
       y1="128.21135"
       x1="189.30054"
       id="linearGradient6756"
       xlink:href="#linearGradient6836"
       inkscape:collect="always"
       gradientTransform="matrix(1.1264435,0,0,0.84906729,111.57811,170.44452)" />
    <linearGradient
       gradientUnits="userSpaceOnUse"
       y2="254.74225"
       x2="194.97542"
       y1="111.45449"
       x1="196.97374"
       id="linearGradient6756-7"
       xlink:href="#linearGradient6836"
       inkscape:collect="always"
       gradientTransform="matrix(1.4793365,0,0,0.91833519,-108.75783,74.860658)" />
    <linearGradient
       gradientUnits="userSpaceOnUse"
       y2="376.58865"
       x2="394.45831"
       y1="251.36607"
       x1="365.87195"
       id="linearGradient4277"
       xlink:href="#linearGradient6836"
       inkscape:collect="always"
       gradientTransform="translate(280.92295,44.38958)" />
    <linearGradient
       inkscape:collect="always"
       xlink:href="#linearGradient6836"
       id="linearGradient4284"
       gradientUnits="userSpaceOnUse"
       gradientTransform="translate(280.92295,44.38958)"
       x1="391.43488"
       y1="243.13026"
       x2="375.84686"
       y2="348.31949" />
    <linearGradient
       gradientUnits="userSpaceOnUse"
       y2="376.58865"
       x2="394.45831"
       y1="251.36607"
       x1="365.87195"
       id="linearGradient4303"
       xlink:href="#linearGradient6836"
       inkscape:collect="always"
       gradientTransform="translate(280.92295,44.38958)" />
    <linearGradient
       inkscape:collect="always"
       xlink:href="#linearGradient6836"
       id="linearGradient4310"
       gradientUnits="userSpaceOnUse"
       gradientTransform="translate(218.5703,76.818581)"
       x1="195.18228"
       y1="154.74225"
       x2="202.46353"
       y2="267.99481" />
    <linearGradient
       inkscape:collect="always"
       xlink:href="#linearGradient6836"
       id="linearGradient4312"
       gradientUnits="userSpaceOnUse"
       gradientTransform="translate(-11.329249,-37.626388)"
       x1="432.52298"
       y1="233.87608"
       x2="427.07477"
       y2="352.96875" />
    <linearGradient
       gradientUnits="userSpaceOnUse"
       y2="376.58865"
       x2="394.45831"
       y1="251.36607"
       x1="365.87195"
       id="linearGradient4331"
       xlink:href="#linearGradient6836"
       inkscape:collect="always"
       gradientTransform="translate(280.92295,44.38958)" />
    <linearGradient
       inkscape:collect="always"
       xlink:href="#linearGradient6836"
       id="linearGradient4338"
       gradientUnits="userSpaceOnUse"
       gradientTransform="translate(128.91081,-5.38071)"
       x1="168.71095"
       y1="142.452"
       x2="169.06219"
       y2="296.95908" />
    <linearGradient
       inkscape:collect="always"
       xlink:href="#linearGradient6836"
       id="linearGradient4340"
       gradientUnits="userSpaceOnUse"
       gradientTransform="translate(-91.18115,-128.33432)"
       x1="365.87195"
       y1="251.36607"
       x2="407.7092"
       y2="400.44025" />
    <filter
       inkscape:collect="always"
       style="color-interpolation-filters:sRGB"
       id="filter4394"
       x="-0.0037039977"
       width="1.007408"
       y="-0.0035885701"
       height="1.0071771">
      <feGaussianBlur
         inkscape:collect="always"
         stdDeviation="0.33155725"
         id="feGaussianBlur4396" />
    </filter>
    <filter
       inkscape:collect="always"
       style="color-interpolation-filters:sRGB"
       id="filter4398"
       x="-0.0055444699"
       width="1.0110889"
       y="-0.0065370825"
       height="1.0130742">
      <feGaussianBlur
         inkscape:collect="always"
         stdDeviation="0.56121859"
         id="feGaussianBlur4400" />
    </filter>
    <filter
       inkscape:collect="always"
       style="color-interpolation-filters:sRGB"
       id="filter4410"
       x="-0.0074967979"
       width="1.0149936"
       y="-0.0072631752"
       height="1.0145264">
      <feGaussianBlur
         inkscape:collect="always"
         stdDeviation="0.67106349"
         id="feGaussianBlur4412" />
    </filter>
    <filter
       inkscape:collect="always"
       style="color-interpolation-filters:sRGB"
       id="filter4418"
       x="-0.012751411"
       width="1.0255028"
       y="-0.011332219"
       height="1.0226644">
      <feGaussianBlur
         inkscape:collect="always"
         stdDeviation="1.1458317"
         id="feGaussianBlur4420" />
    </filter>
    <filter
       inkscape:collect="always"
       style="color-interpolation-filters:sRGB"
       id="filter4202"
       x="-0.0043838719"
       width="1.0087677"
       y="-0.0053034133"
       height="1.0106068">
      <feGaussianBlur
         inkscape:collect="always"
         stdDeviation="0.93157317"
         id="feGaussianBlur4204" />
    </filter>
    <filter
       inkscape:collect="always"
       style="color-interpolation-filters:sRGB"
       id="filter4206"
       x="-0.0019817483"
       width="1.0039635"
       y="-0.0030420252"
       height="1.0060841">
      <feGaussianBlur
         inkscape:collect="always"
         stdDeviation="0.42116834"
         id="feGaussianBlur4208" />
    </filter>
    <filter
       inkscape:collect="always"
       style="color-interpolation-filters:sRGB"
       id="filter4218"
       x="-0.0060964961"
       width="1.012193"
       y="-0.005906511"
       height="1.011813">
      <feGaussianBlur
         inkscape:collect="always"
         stdDeviation="0.54571779"
         id="feGaussianBlur4220" />
    </filter>
    <filter
       inkscape:collect="always"
       style="color-interpolation-filters:sRGB"
       id="filter4222"
       x="-0.0076508464"
       width="1.0153017"
       y="-0.0067993313"
       height="1.0135987">
      <feGaussianBlur
         inkscape:collect="always"
         stdDeviation="0.68749904"
         id="feGaussianBlur4224" />
    </filter>
    <filter
       inkscape:collect="always"
       style="color-interpolation-filters:sRGB"
       id="filter4226"
       x="-0.0048771969"
       width="1.0097544"
       y="-0.0047252088"
       height="1.0094504">
      <feGaussianBlur
         inkscape:collect="always"
         stdDeviation="0.43657423"
         id="feGaussianBlur4228" />
    </filter>
    <filter
       inkscape:collect="always"
       style="color-interpolation-filters:sRGB"
       id="filter4230"
       x="-0.0040764434"
       width="1.0081529"
       y="-0.0058358451"
       height="1.0116717">
      <feGaussianBlur
         inkscape:collect="always"
         stdDeviation="0.54188983"
         id="feGaussianBlur4232" />
    </filter>
  </defs>
  <metadata
     id="metadata7">
    <rdf:RDF>
      <cc:Work
         rdf:about="">
        <dc:format>image/svg+xml</dc:format>
        <dc:type
           rdf:resource="http://purl.org/dc/dcmitype/StillImage" />
        <dc:title />
      </cc:Work>
    </rdf:RDF>
  </metadata>
  <g
     inkscape:label="Ebene 1"
     inkscape:groupmode="layer"
     id="layer1"
     transform="translate(-85.007331,-240.86218)"
     style="display:inline">
    <path
       sodipodi:type="star"
       style="fill:url(#linearGradient4490);fill-opacity:1;stroke:none;stroke-width:8.1496067;stroke-linecap:round;stroke-linejoin:miter;stroke-miterlimit:4;stroke-dasharray:none;stroke-opacity:1;opacity:1"
       id="path4136"
       sodipodi:sides="6"
       sodipodi:cx="339.98145"
       sodipodi:cy="535.36218"
       sodipodi:r1="1043.2921"
       sodipodi:r2="903.51752"
       sodipodi:arg1="0.52359878"
       sodipodi:arg2="1.0471976"
       inkscape:flatsided="true"
       inkscape:rounded="0"
       inkscape:randomized="0"
       d="m 1243.4989,1057.0082 -903.51746,521.6461 -903.51747,-521.6461 0,-1043.292078 903.51748,-521.646052 903.51745,521.646059 z"
       transform="matrix(0.28223029,0,0,0.28227952,244.04692,384.2404)" />
  </g>
  <g
     inkscape:groupmode="layer"
     id="layer2"
     inkscape:label="Ebene 2">
    <path
       inkscape:connector-curvature="0"
       style="opacity:1;fill:url(#linearGradient4338);fill-opacity:1;fill-rule:evenodd;stroke:none;stroke-width:1px;stroke-linecap:butt;stroke-linejoin:miter;stroke-opacity:1;filter:url(#filter4418)"
       d="m 357.75137,61.56907 -0.0293,0.0449 -0.0176,0.78125 0.0469,-0.82617 z m -0.0469,0.82617 -15.86132,131.09766 -11.16993,-10.64067 4.87305,0.32617 -7.63672,-68.4375 -7.60156,69.5918 -21.37695,-96.76758 -10.71485,106.24024 10.33203,-1.2168 -4.21289,9.77148 -6.22461,2.7793 -4.54687,-36.44336 3.37695,0.375 -6.73633,-40.20312 3.13672,1.57422 -4.22265,-64.00586 -11.31641,66.89257 3.62305,-1.20703 -9.2461,26.45118 4.27344,-0.24415 -33.04978,93.44777 178.79133,-26.31086 -15.67514,-60.92792 8.58984,9.54297 -12.00977,-80.47852 -14.99609,69.41797 5.69922,-1.64453 -5.79478,19.92406 L 357.70447,62.3952 Z"
       id="path6646-0-9"
       sodipodi:nodetypes="ccccccccccccccccccccccccccccccccccc" />
    <path
       inkscape:connector-curvature="0"
       style="opacity:1;fill:url(#linearGradient4340);fill-opacity:1;fill-rule:evenodd;stroke:none;stroke-width:1px;stroke-linecap:butt;stroke-linejoin:miter;stroke-opacity:1;filter:url(#filter4226)"
       d="m 345.20059,82.49094 -8.3418,38.00977 2.77344,-1.19531 -4.94531,19.33593 2.78125,-0.64843 -11.16602,51.41211 -17.93332,9.22844 -17.41043,-33.87102 7.66211,1.55078 -13.70703,-80.49219 -19.39258,77.66406 5.33398,-4.64453 -7.76358,42.18893 -8.75204,-20.45455 6.52148,1.50195 -16.14648,-65.12695 -19.29688,61.28711 7.07422,-2.00196 -19.33402,69.60254 51.05631,6.97989 96.60193,-58.77188 -8.53125,-55.38476 3.97461,0.5957 -5.58008,-22.07031 2.93946,1.16406 z"
       id="path6602-6-7"
       sodipodi:nodetypes="cccccccccccccccccccccccccc" />
    <path
       inkscape:connector-curvature="0"
       style="opacity:1;fill:url(#linearGradient4310);fill-opacity:1;fill-rule:evenodd;stroke:none;stroke-width:1px;stroke-linecap:butt;stroke-linejoin:miter;stroke-opacity:1;filter:url(#filter4222)"
       d="m 447.41086,143.76836 -0.0293,0.0449 -0.0176,0.78125 0.0469,-0.82617 z m -0.0469,0.82617 -13.22983,122.78007 -16.56509,-70.43441 -12.55213,39.43882 -16.42638,-66.6146 -6.48652,56.17984 -13.32598,-77.30874 -23.77149,122.97851 115.34191,58.6653 40.087,-39.15891 -0.59297,-15.34428 -13.66406,-29.03906 8.58984,9.54297 -12.00977,-80.47852 -14.99609,69.41797 5.69922,-1.64453 16.55838,56.69151 -29.53494,-36.87901 5.76367,-2.25195 -18.88477,-116.54102 z"
       id="path6646-0-2"
       sodipodi:nodetypes="cccccccccccccccccccccccccc" />
    <path
       inkscape:connector-curvature="0"
       style="opacity:1;fill:url(#linearGradient4312);fill-opacity:1;fill-rule:evenodd;stroke:none;stroke-width:1px;stroke-linecap:butt;stroke-linejoin:miter;stroke-opacity:1;filter:url(#filter4218)"
       d="m 425.05249,173.19887 -8.3418,38.00977 2.77344,-1.19531 -4.94531,19.33593 2.78125,-0.64843 -11.16602,51.41211 34.51367,4.64062 -8.53125,-55.38476 3.97461,0.5957 -5.58008,-22.07031 2.93946,1.16406 z"
       id="path6602-6-3"
       sodipodi:nodetypes="cccccccccccc" />
    <path
       inkscape:connector-curvature="0"
       style="opacity:1;fill:url(#linearGradient6756-7);fill-opacity:1;fill-rule:evenodd;stroke:none;stroke-width:1px;stroke-linecap:butt;stroke-linejoin:miter;stroke-opacity:1;filter:url(#filter4230)"
       d="m 229.77437,136.343 -0.0434,0.0412 -0.026,0.71745 0.0694,-0.7587 z m -0.0694,0.7587 -23.46423,120.39159 -16.52409,-9.77168 7.20888,0.29953 -11.29728,-62.84856 -11.24526,63.9086 5.29324,-0.45917 -6.90838,16.50493 -30.00856,-104.91084 -15.85087,74.40175 -7.21177,-35.02632 -6.24672,-58.77884 -16.740777,61.4298 -1.102111,63.82509 219.296648,9.92675 -32.8383,-110.23413 -24.42349,78.3652 -27.93693,-107.02372 z"
       id="path6646-0-0"
       sodipodi:nodetypes="cccccccccccccccccccccccc" />
    <path
       inkscape:connector-curvature="0"
       style="opacity:1;fill:url(#linearGradient4284);fill-opacity:1;fill-rule:evenodd;stroke:none;stroke-width:1px;stroke-linecap:butt;stroke-linejoin:miter;stroke-opacity:1;filter:url(#filter4410)"
       d="m 717.30469,255.21484 -8.3418,38.00977 2.77344,-1.19531 -4.94531,19.33593 2.78125,-0.64843 -10.15734,37.54308 -27.41978,-10.24612 -14.97757,-79.46884 -25.33422,106.7139 105.5222,-0.0197 -12.81689,-53.85437 3.97461,0.5957 -5.58008,-22.07031 2.93946,1.16406 -8.41797,-35.85938 z"
       id="path6602-6-0"
       transform="matrix(1.4793365,0,0,0.91833519,-849.92747,-78.816482)"
       sodipodi:nodetypes="cccccccccccccccc" />
    <path
       sodipodi:nodetypes="cccccccccccccccccccccccccccccccccccccccccccccccccccc"
       inkscape:connector-curvature="0"
       id="path6646"
       d="m -0.00756929,441.74991 0.05846,-183.48224 27.36522529,-21.45645 2.162961,-25.86851 15.478042,0.43384 -0.06831,-10.08803 6.770379,-4.65072 -2.254699,-17.36742 17.759302,4.6705 -1.21428,-9.17714 13.08,-7.33669 26.317179,7.89426 25.61539,15.00093 14.03089,12.40455 5.92666,13.15016 10.8911,-3.88713 2.35221,2.2454 16.38218,0.64383 -14.02005,15.36439 6.73453,8.59625 13.9128,-8.04085 6.4917,8.77115 -0.62511,3.44459 18.21168,4.73492 10.18897,-11.84794 13.79443,11.54168 10.32007,-2.73191 -0.58149,-6.42434 11.02711,-7.96368 5.48775,-10.23033 5.12483,-13.72746 8.01631,-5.87951 27.92331,4.893 -1.10369,-19.09671 13.04151,-8.32718 18.38332,0.61754 14.26875,0.83934 9.58086,-5.47694 25.38649,3.70471 24.87803,34.96509 3.8896,22.58172 32.35822,29.93969 -2.31359,14.94525 11.65059,1.72282 5.37852,9.34821 7.49842,-10.07111 0.52176,-11.50879 14.00935,-10.19529 17.31098,2.40082 12.60157,6.77912 0,173.2027 -255,147.25"
       style="opacity:1;fill:url(#linearGradient6748);fill-opacity:1.0;fill-rule:evenodd;stroke:none;stroke-width:1px;stroke-linecap:butt;stroke-linejoin:miter;stroke-opacity:1;filter:url(#filter4202)" />
    <path
       sodipodi:nodetypes="cccccccccccccccccccccccccccccccccccccccccccccccccccc"
       inkscape:connector-curvature="0"
       id="path6648"
       d="m -0.00932039,441.74999 -0.0312,-88.97729 17.23351039,-14.80738 6.11935,4.91747 10.38298,-15.50466 14.03632,-12.1372 14.61501,1.72036 4.80076,5.81468 1.10214,-16.77151 13.41603,-0.25348 5.70729,9.46117 9.947,-11.67466 5.0439,-1.27526 11.80085,19.7707 -5.34842,3.26018 4.10416,11.53687 16.90417,-9.19993 9.58273,-17.23913 3.22548,0.7663 13.59257,-10.24629 3.79641,-8.1173 5.59797,-7.47848 8.26196,-1.57056 0.51279,-9.51298 8.1624,-2.83066 3.92489,-0.4612 6.56699,5.48012 7.76346,-0.89115 7.33612,-0.96488 2.97071,-8.3501 6.62911,5.26691 10.07924,-14.76061 8.31773,8.61486 3.84959,11.49078 5.90974,7.02872 2.06473,-3.55032 8.05749,9.21761 8.96379,14.14485 59.94174,27.28099 15.1551,19.76088 88.36203,-15.26641 2.6469,-14.41407 4.2123,-3.30782 12.06876,-7.27347 7.58235,-7.4158 5.99219,4.67675 4.1979,-3.02853 -0.16989,-17.79009 16.97516,-19.40353 28.03768,-9.21777 0,183.48233 -255,147.25"
       style="opacity:1;fill:url(#linearGradient6734);fill-opacity:1.0;fill-rule:evenodd;stroke:none;stroke-width:1px;stroke-linecap:butt;stroke-linejoin:miter;stroke-opacity:1;filter:url(#filter4206)" />
    <path
       inkscape:connector-curvature="0"
       style="opacity:1;fill:url(#linearGradient6756);fill-opacity:1;fill-rule:evenodd;stroke:none;stroke-width:1px;stroke-linecap:butt;stroke-linejoin:miter;stroke-opacity:1;filter:url(#filter4398)"
       d="m 369.35407,227.28939 -0.033,0.0381 -0.0198,0.66333 0.0528,-0.70147 z m -0.0528,0.70147 -23.72131,110.8265 0.31681,3.74617 5.53762,-3.26193 -2.84692,30.96939 -0.1166,0.0962 -0.33441,0.10281 -0.14081,-0.0299 -9.14356,-40.17315 5.48922,0.27694 -8.60233,-58.10804 -8.56273,59.08812 4.03055,-0.42453 -6.21304,29.24638 9.73538,-2.87058 -2.13848,17.24835 -1.12425,0.97178 0,0 -1.11544,-0.47262 -12.48328,-27.11211 8.07871,-1.75121 -22.85008,-96.99765 -10.84924,99.83212 -10.24518,-64.76331 3.53334,1.33662 -4.75658,-54.34529 -12.7473,56.7963 4.08116,-1.02485 -10.4152,22.45883 4.81378,-0.2073 -12.50968,26.39406 3.59944,88.03446 174.86205,-23.63511 -4.04755,-60.86544 -15.39179,-24.65612 9.67597,8.10262 -13.52833,-68.33167 -16.89225,58.94052 6.41985,-1.39631 -3.59054,42.03048 -11.02682,-25.20834 6.49245,-1.91205 -21.27263,-98.95117 z m -21.30562,142.44928 0.14081,0.0299 0.33441,-0.10281 0.1166,-0.0962 z"
       id="path6646-0"
       sodipodi:nodetypes="cccccccccccccccccccccccccccccccccccccccccccccccccccccc" />
    <path
       transform="matrix(1.2050243,0,0,0.84879093,-502.57642,40.345391)"
       inkscape:connector-curvature="0"
       style="opacity:1;fill:url(#linearGradient6610-0);fill-opacity:1;fill-rule:evenodd;stroke:none;stroke-width:1px;stroke-linecap:butt;stroke-linejoin:miter;stroke-opacity:1;filter:url(#filter4394)"
       d="m 717.30469,255.21484 -8.3418,38.00977 2.77344,-1.19531 -4.94531,19.33593 2.78125,-0.64843 -11.16602,51.41211 4.54297,-0.26953 -14.56445,49.28278 -25.32227,-73.65583 7.66211,1.55078 -13.70703,-80.49219 -19.39258,77.66406 5.33398,-4.64453 -17.10756,48.62619 4.75976,-23.71912 -13.79282,-66.79769 -19.29688,61.28711 7.07422,-2.00196 -8.01464,106.85123 138.93518,-5.4922 0.68254,-54.77519 -7.79839,-28.66587 4.51953,-0.10742 -8.53125,-55.38476 3.97461,0.5957 -5.58008,-22.07031 2.93946,1.16406 z"
       id="path6602-6"
       sodipodi:nodetypes="cccccccccccccccccccccccccccc" />
    <path
       sodipodi:nodetypes="ccccccccccccccccccccccccccccccccccccccccccccccccccccccccccccccccccccccccccccccccccccccccccccccccccccccccccccccccccccccccccccccccc"
       inkscape:connector-curvature="0"
       id="path6602"
       d="m 6.8602001,431.73674 -3.5415994,-5.4648 6.8799823,-8.36908 6.748827,-5.38158 3.70045,-1.36716 1.53705,2.17853 4.84131,-0.62261 10.31428,9.02333 -2.21067,7.83533 2.6254,-1.65596 -1.46389,-5.30236 2.40654,0.81904 1.16716,-4.00623 4.23305,-0.48962 11.01169,-8.26109 2.58185,-5.60205 -1.46899,-1.00634 -0.64224,-4.78949 3.0106,2.31777 12.8403,-10.1479 3.52434,-7.70727 -2.99001,-3.58687 9.26491,-2.21596 13.7414,-1.61765 16.78088,5.88617 7.24424,5.82585 9.31204,-8.31741 3.48652,9.69092 4.47709,-1.19922 2.64501,4.76076 -3.5589,1.04831 2.14451,5.58797 7.81898,6.4696 5.16122,-0.74629 11.46541,3.01269 0.1782,5.07133 -2.07788,4.62951 -0.70765,-2.71763 -0.0735,-5.3995 -8.58146,-11.08591 7.01799,-4.12791 1.21427,-8.94554 -0.92212,-9.71485 -0.95244,-1.96927 4.7553,-4.54469 2.90037,0.62706 -0.20537,-1.18135 2.06624,-8.28318 0.20306,-1.25127 -4.34264,-0.22976 -0.6161,-7.24717 2.9682,-2.59877 -1.76171,-0.56951 3.35557,-11.06106 5.02659,-4.47968 7.15181,1.52876 1.5633,2.70224 17.19267,4.43646 3.36283,-4.00023 2.80785,-1.80151 17.32202,-2.3532 2.21031,0.77412 1.96491,3.86406 -1.60194,3.82764 2.05224,-0.0669 8.77231,-10.26869 8.24748,-1.32724 16.66686,4.13667 1.32237,1.88336 6.11068,-1.70421 1.94364,0.80407 2.1637,2.94794 -1.2919,3.15844 6.1461,15.58894 -3.3713,2.02418 4.3078,6.00983 12.8241,8.27798 3.9788,5.18195 10.6161,-5.45727 15.4789,5.81836 12.1307,-3.54738 7.0629,-0.39695 1.2753,3.29498 4.4816,1.88253 6.0064,5.73517 3.2831,4.17899 2.1171,2.91196 -3.7934,6.11255 0.0795,-4.56654 4.3851,-1.27693 10.8183,3.03494 2.4953,-2.90483 6.0394,7.29828 1.96633,-0.80447 1.6208,-16.95313 -3.2342,-2.38333 -4.76913,0.41211 -1.9892,-6.53546 -6.219,-4.91655 3.4989,-6.30204 8.0281,-4.73374 14.62943,8.23855 1.7625,3.48793 -1.2506,3.20573 4.6105,-3.12675 2.9076,-2.53588 10.3568,-9.87232 1.0293,-8.36497 4.275,1.98137 10.8005,-5.1934 -2.7066,-1.78969 8.1179,-16.01587 6.5344,2.8917 2.2148,6.45451 10.72278,-1.22518 4.5555,4.18576 8.6782,-3.39668 3.1628,-8.71413 12.42979,0.69094 11.1958,12.36814 7.1692,-0.81599 -0.7307,-2.11425 4.3447,-4.13089 1.314,5.3354 4.3396,8.52377 5.14959,3.92207 -0.23954,88.9773 c 0,0 -255.00077,147.25314 -255,147.25 L -0.00932039,441.74999"
       style="opacity:1;fill:url(#linearGradient6610);fill-opacity:1;fill-rule:evenodd;stroke:none;stroke-width:1px;stroke-linecap:butt;stroke-linejoin:miter;stroke-opacity:1" />
  </g>
</svg>
